<svg xmlns="http://www.w3.org/2000/svg" xmlns:xlink="http://www.w3.org/1999/xlink" width="500" zoomAndPan="magnify" viewBox="0 0 375 374.999991" height="500" preserveAspectRatio="xMidYMid meet" version="1.0"><defs><g/><clipPath id="d667aeae1f"><path d="M 77.335938 75.988281 L 297.835938 75.988281 L 297.835938 296.488281 L 77.335938 296.488281 Z M 77.335938 75.988281 " clip-rule="nonzero"/></clipPath><clipPath id="1c6bdba1a0"><path d="M 315.515625 98.453125 L 330 98.453125 L 330 112 L 315.515625 112 Z M 315.515625 98.453125 " clip-rule="nonzero"/></clipPath><clipPath id="5cb7e5a70c"><path d="M 316 122 L 343.265625 122 L 343.265625 254.453125 L 316 254.453125 Z M 316 122 " clip-rule="nonzero"/></clipPath><clipPath id="fe32d2ae59"><path d="M 45 98.453125 L 59.476562 98.453125 L 59.476562 112 L 45 112 Z M 45 98.453125 " clip-rule="nonzero"/></clipPath><clipPath id="29692639b6"><path d="M 31.9375 122 L 59 122 L 59 254.453125 L 31.9375 254.453125 Z M 31.9375 122 " clip-rule="nonzero"/></clipPath></defs><path fill="#f14624" d="M 295.695312 186.199219 C 295.695312 245.886719 247.300781 294.265625 187.621094 294.265625 C 127.945312 294.265625 79.550781 245.886719 79.550781 186.199219 C 79.550781 126.523438 127.945312 78.136719 187.621094 78.136719 C 247.300781 78.136719 295.695312 126.523438 295.695312 186.199219 " fill-opacity="1" fill-rule="nonzero"/><g clip-path="url(#d667aeae1f)"><path fill="#231f20" d="M 295.695312 186.199219 L 293.519531 186.199219 C 293.519531 215.449219 281.664062 241.90625 262.496094 261.078125 C 243.328125 280.242188 216.867188 292.085938 187.621094 292.089844 C 158.378906 292.085938 131.917969 280.242188 112.746094 261.078125 C 93.578125 241.90625 81.730469 215.449219 81.726562 186.199219 C 81.730469 156.953125 93.578125 130.496094 112.746094 111.328125 C 131.917969 92.164062 158.378906 80.3125 187.621094 80.3125 C 216.867188 80.3125 243.328125 92.164062 262.496094 111.328125 C 281.664062 130.496094 293.519531 156.953125 293.519531 186.199219 L 297.871094 186.199219 C 297.871094 155.765625 285.527344 128.191406 265.574219 108.25 C 245.628906 88.304688 218.054688 75.957031 187.621094 75.960938 C 157.1875 75.957031 129.613281 88.304688 109.667969 108.25 C 89.71875 128.191406 77.371094 155.765625 77.371094 186.199219 C 77.371094 216.636719 89.71875 244.210938 109.667969 264.15625 C 129.613281 284.097656 157.1875 296.441406 187.621094 296.441406 C 218.054688 296.441406 245.628906 284.097656 265.574219 264.15625 C 285.527344 244.210938 297.871094 216.636719 297.871094 186.199219 L 295.695312 186.199219 " fill-opacity="1" fill-rule="nonzero"/></g><path fill="#231f20" d="M 202.527344 205.265625 C 209.429688 215.554688 218.460938 224.515625 228.230469 232.082031 C 241.46875 242.332031 255.945312 248.992188 271.0625 254.539062 C 272.035156 253.351562 272.984375 252.144531 273.90625 250.90625 C 261.113281 245.9375 248.839844 240.050781 237.089844 231.789062 C 225.835938 223.890625 216.167969 214.132812 208.859375 202.78125 C 238.320312 190.808594 266.785156 172.722656 288.945312 150.054688 C 288.3125 148.269531 287.632812 146.5 286.898438 144.746094 C 264.996094 168.234375 236.351562 186.628906 206.503906 198.886719 C 203.472656 193.621094 200.902344 188.050781 198.9375 182.175781 C 192.820312 163.898438 195.066406 144.140625 199.625 125.808594 C 203.265625 111.28125 209.476562 95.023438 219.984375 83.453125 C 218.570312 83.007812 217.144531 82.597656 215.722656 82.210938 C 192.457031 104.953125 184.5 147.8125 190.585938 177.558594 C 192.347656 186.117188 195.667969 194.085938 200.074219 201.425781 C 196.148438 202.910156 192.207031 204.335938 188.269531 205.605469 C 182.433594 207.480469 176.5 209.300781 170.464844 211 C 169.96875 210.164062 169.457031 209.332031 168.972656 208.488281 C 148.882812 173.714844 133.867188 130.609375 138.78125 89.824219 C 136.394531 91.019531 134.066406 92.285156 131.796875 93.644531 C 127.945312 133.222656 142.328125 173.726562 161.03125 207.921875 C 161.925781 209.5625 162.859375 211.207031 163.796875 212.84375 C 157.699219 214.46875 151.523438 215.964844 145.300781 217.289062 C 131.871094 190.945312 112.027344 169.082031 83.371094 156.40625 C 82.835938 158.265625 82.351562 160.144531 81.914062 162.050781 C 107.726562 174.335938 125.917969 194.507812 138.464844 218.671875 C 120.988281 222.027344 103.171875 223.917969 85.617188 223.433594 C 86.175781 224.96875 86.777344 226.476562 87.40625 227.980469 C 105.070312 228.128906 122.898438 226 140.421875 222.535156 C 150.625 243.46875 156.789062 267.140625 160.191406 291.105469 C 162.503906 291.695312 164.84375 292.179688 167.203125 292.628906 C 163.863281 267.695312 157.628906 242.996094 147.175781 221.128906 C 153.5 219.757812 159.765625 218.21875 165.972656 216.578125 C 181.792969 243.28125 202.980469 268.953125 229.21875 286.011719 C 231.285156 285.140625 233.332031 284.171875 235.332031 283.175781 C 209.324219 266.367188 188.660156 241.039062 172.6875 214.746094 C 178.316406 213.167969 183.886719 211.511719 189.398438 209.804688 C 193.773438 208.4375 198.160156 206.898438 202.527344 205.265625 " fill-opacity="1" fill-rule="nonzero"/><path fill="#231f20" d="M 202.527344 205.265625 L 200.71875 206.476562 C 207.789062 217.007812 216.984375 226.125 226.898438 233.800781 C 240.382812 244.246094 255.089844 251 270.3125 256.585938 C 271.179688 256.90625 272.15625 256.636719 272.742188 255.921875 C 273.738281 254.707031 274.707031 253.476562 275.652344 252.207031 C 276.0625 251.660156 276.191406 250.964844 276 250.304688 C 275.8125 249.648438 275.332031 249.125 274.695312 248.878906 C 262 243.945312 249.90625 238.140625 238.34375 230.007812 L 238.339844 230.003906 C 227.296875 222.257812 217.832031 212.695312 210.691406 201.601562 L 208.859375 202.78125 L 209.679688 204.796875 C 239.394531 192.71875 268.09375 174.496094 290.503906 151.578125 C 291.085938 150.984375 291.277344 150.109375 291 149.324219 C 290.347656 147.503906 289.65625 145.695312 288.910156 143.910156 C 288.625 143.222656 288.015625 142.734375 287.285156 142.605469 C 286.554688 142.472656 285.816406 142.71875 285.308594 143.261719 C 263.664062 166.472656 235.273438 184.722656 205.675781 196.871094 L 206.503906 198.886719 L 208.390625 197.800781 C 205.425781 192.648438 202.914062 187.210938 201.003906 181.484375 C 198.433594 173.816406 197.378906 165.851562 197.378906 157.789062 C 197.378906 147.273438 199.179688 136.605469 201.738281 126.335938 L 201.738281 126.339844 C 203.535156 119.175781 205.960938 111.59375 209.214844 104.421875 C 212.464844 97.25 216.539062 90.484375 221.597656 84.917969 C 222.09375 84.371094 222.28125 83.601562 222.082031 82.886719 C 221.890625 82.171875 221.34375 81.601562 220.636719 81.378906 C 219.191406 80.921875 217.734375 80.503906 216.289062 80.113281 C 215.546875 79.910156 214.75 80.117188 214.203125 80.65625 C 204.75 89.894531 197.835938 102.226562 193.257812 115.589844 C 188.683594 128.964844 186.445312 143.394531 186.441406 156.921875 C 186.441406 164.316406 187.113281 171.445312 188.453125 177.992188 C 190.269531 186.824219 193.695312 195.027344 198.207031 202.546875 L 200.074219 201.425781 L 199.300781 199.390625 C 195.398438 200.867188 191.488281 202.28125 187.601562 203.53125 C 181.789062 205.402344 175.878906 207.214844 169.875 208.90625 L 170.464844 211 L 172.339844 209.894531 C 171.832031 209.035156 171.324219 208.210938 170.855469 207.398438 L 170.855469 207.402344 C 153.492188 177.363281 140.007812 141.082031 140.019531 105.765625 C 140.019531 100.511719 140.3125 95.277344 140.9375 90.085938 C 141.035156 89.292969 140.683594 88.503906 140.03125 88.046875 C 139.378906 87.585938 138.519531 87.519531 137.804688 87.878906 C 135.378906 89.09375 133 90.386719 130.679688 91.777344 C 130.085938 92.128906 129.695312 92.746094 129.628906 93.429688 C 129.195312 97.867188 128.988281 102.308594 128.988281 106.753906 C 129 142.625 142.378906 178.34375 159.121094 208.964844 C 160.023438 210.625 160.96875 212.285156 161.910156 213.925781 L 163.796875 212.84375 L 163.238281 210.742188 C 157.175781 212.355469 151.03125 213.84375 144.84375 215.160156 L 145.300781 217.289062 L 147.238281 216.304688 C 140.441406 202.960938 131.996094 190.71875 121.59375 180.191406 C 111.195312 169.667969 98.832031 160.867188 84.25 154.417969 C 83.671875 154.164062 83.019531 154.167969 82.449219 154.4375 C 81.875 154.703125 81.453125 155.203125 81.277344 155.808594 C 80.734375 157.703125 80.238281 159.621094 79.789062 161.5625 C 79.5625 162.558594 80.058594 163.578125 80.976562 164.015625 C 93.648438 170.046875 104.429688 178 113.601562 187.425781 C 122.777344 196.851562 130.34375 207.753906 136.53125 219.675781 L 138.464844 218.671875 L 138.054688 216.535156 C 122.503906 219.519531 106.707031 221.332031 91.105469 221.332031 C 89.292969 221.332031 87.484375 221.308594 85.675781 221.257812 C 84.957031 221.238281 84.273438 221.574219 83.851562 222.160156 C 83.429688 222.746094 83.324219 223.5 83.570312 224.175781 C 84.144531 225.757812 84.761719 227.296875 85.398438 228.820312 C 85.734375 229.628906 86.515625 230.152344 87.390625 230.15625 C 87.96875 230.164062 88.546875 230.167969 89.125 230.167969 C 106.402344 230.164062 123.785156 228.042969 140.84375 224.671875 L 140.421875 222.535156 L 138.464844 223.488281 C 148.539062 244.152344 154.65625 267.613281 158.035156 291.410156 C 158.160156 292.285156 158.796875 293 159.652344 293.21875 C 162.027344 293.820312 164.414062 294.3125 166.800781 294.765625 C 167.488281 294.894531 168.195312 294.6875 168.699219 294.207031 C 169.207031 293.726562 169.453125 293.03125 169.359375 292.339844 C 165.992188 267.238281 159.722656 242.332031 149.136719 220.191406 L 147.175781 221.128906 L 147.632812 223.257812 C 154.003906 221.875 160.296875 220.332031 166.53125 218.683594 L 165.972656 216.578125 L 164.101562 217.6875 C 180.046875 244.59375 201.40625 270.519531 228.03125 287.835938 C 228.636719 288.230469 229.402344 288.296875 230.066406 288.015625 C 232.1875 287.121094 234.277344 286.132812 236.300781 285.125 C 237.003906 284.773438 237.460938 284.082031 237.503906 283.296875 C 237.546875 282.515625 237.171875 281.773438 236.511719 281.347656 C 210.902344 264.800781 190.410156 239.730469 174.546875 213.617188 L 172.6875 214.746094 L 173.273438 216.84375 C 178.925781 215.257812 184.515625 213.597656 190.042969 211.882812 L 190.046875 211.882812 C 194.46875 210.5 198.898438 208.945312 203.285156 207.304688 L 202.527344 205.265625 L 200.71875 206.476562 L 202.527344 205.265625 L 201.765625 203.226562 C 197.425781 204.847656 193.074219 206.375 188.75 207.726562 L 188.757812 207.726562 C 183.261719 209.429688 177.707031 211.078125 172.097656 212.652344 C 171.441406 212.835938 170.910156 213.3125 170.660156 213.949219 C 170.414062 214.585938 170.472656 215.292969 170.828125 215.878906 C 186.914062 242.34375 207.75 267.929688 234.148438 285.003906 L 235.332031 283.175781 L 234.359375 281.226562 C 232.390625 282.207031 230.382812 283.15625 228.371094 284.003906 L 229.21875 286.011719 L 230.40625 284.1875 C 204.554688 267.386719 183.539062 241.972656 167.84375 215.46875 C 167.347656 214.632812 166.355469 214.226562 165.414062 214.472656 C 159.234375 216.109375 153 217.640625 146.710938 219.003906 C 146.058594 219.144531 145.515625 219.570312 145.21875 220.171875 C 144.925781 220.773438 144.921875 221.464844 145.210938 222.070312 C 155.535156 243.664062 161.726562 268.148438 165.046875 292.917969 L 167.203125 292.628906 L 167.609375 290.488281 C 165.273438 290.046875 162.976562 289.570312 160.726562 288.996094 L 160.191406 291.105469 L 162.347656 290.800781 C 158.917969 266.671875 152.710938 242.789062 142.378906 221.582031 C 141.945312 220.695312 140.96875 220.210938 140 220.398438 C 123.148438 223.730469 106.046875 225.8125 89.125 225.8125 C 88.558594 225.8125 87.988281 225.808594 87.425781 225.804688 L 87.40625 227.980469 L 89.414062 227.140625 C 88.792969 225.65625 88.207031 224.183594 87.664062 222.691406 L 85.617188 223.433594 L 85.558594 225.609375 C 87.402344 225.660156 89.253906 225.683594 91.105469 225.683594 C 107.042969 225.683594 123.109375 223.835938 138.875 220.808594 C 139.542969 220.679688 140.125 220.234375 140.421875 219.621094 C 140.722656 219.003906 140.710938 218.273438 140.394531 217.667969 C 134.039062 205.421875 126.234375 194.160156 116.722656 184.386719 C 107.214844 174.617188 95.992188 166.339844 82.847656 160.082031 L 81.914062 162.050781 L 84.035156 162.539062 C 84.460938 160.671875 84.941406 158.832031 85.460938 157.007812 L 83.371094 156.40625 L 82.488281 158.398438 C 96.5625 164.625 108.453125 173.089844 118.496094 183.253906 C 128.539062 193.414062 136.734375 205.277344 143.359375 218.28125 C 143.808594 219.15625 144.789062 219.625 145.753906 219.421875 C 152.019531 218.082031 158.226562 216.582031 164.359375 214.945312 C 165.011719 214.769531 165.546875 214.304688 165.808594 213.679688 C 166.066406 213.054688 166.023438 212.347656 165.683594 211.761719 C 164.75 210.128906 163.824219 208.496094 162.941406 206.878906 C 146.398438 176.648438 133.335938 141.523438 133.34375 106.753906 C 133.34375 102.445312 133.542969 98.144531 133.960938 93.851562 L 131.796875 93.644531 L 132.914062 95.511719 C 135.136719 94.183594 137.417969 92.941406 139.753906 91.769531 L 138.78125 89.824219 L 136.621094 89.566406 C 135.972656 94.9375 135.664062 100.347656 135.664062 105.765625 C 135.675781 142.191406 149.472656 179.074219 167.089844 209.582031 C 167.59375 210.457031 168.109375 211.292969 168.589844 212.109375 C 169.09375 212.957031 170.105469 213.363281 171.054688 213.097656 C 177.121094 211.386719 183.085938 209.5625 188.9375 207.675781 C 192.921875 206.390625 196.894531 204.957031 200.84375 203.460938 C 201.449219 203.230469 201.917969 202.75 202.128906 202.140625 C 202.339844 201.527344 202.273438 200.859375 201.9375 200.304688 C 197.644531 193.148438 194.425781 185.410156 192.71875 177.117188 C 191.445312 170.902344 190.796875 164.050781 190.796875 156.921875 C 190.796875 143.871094 192.96875 129.875 197.378906 117.003906 C 201.78125 104.125 208.421875 92.386719 217.242188 83.769531 L 215.722656 82.210938 L 215.152344 84.3125 C 216.554688 84.691406 217.949219 85.09375 219.328125 85.53125 L 219.984375 83.453125 L 218.371094 81.992188 C 212.921875 87.996094 208.636719 95.144531 205.25 102.625 C 201.859375 110.105469 199.359375 117.917969 197.515625 125.28125 L 197.515625 125.285156 C 194.902344 135.773438 193.027344 146.777344 193.027344 157.789062 C 193.027344 166.226562 194.132812 174.675781 196.875 182.867188 C 198.886719 188.890625 201.523438 194.59375 204.617188 199.972656 C 205.160156 200.917969 206.324219 201.3125 207.332031 200.898438 C 237.429688 188.535156 266.324219 169.996094 288.492188 146.230469 L 286.898438 144.746094 L 284.890625 145.582031 C 285.609375 147.296875 286.273438 149.03125 286.898438 150.785156 L 288.945312 150.054688 L 287.390625 148.535156 C 265.480469 170.953125 237.246094 188.894531 208.039062 200.765625 C 207.441406 201.007812 206.976562 201.507812 206.785156 202.125 C 206.589844 202.738281 206.679688 203.417969 207.027344 203.960938 C 214.503906 215.566406 224.375 225.527344 235.84375 233.570312 L 235.839844 233.566406 C 247.773438 241.960938 260.222656 247.925781 273.121094 252.9375 L 273.90625 250.90625 L 272.164062 249.601562 C 271.265625 250.8125 270.335938 251.992188 269.375 253.164062 L 271.0625 254.539062 L 271.8125 252.496094 C 256.796875 246.992188 242.550781 240.417969 229.5625 230.359375 C 219.933594 222.90625 211.074219 214.097656 204.332031 204.050781 C 203.773438 203.21875 202.707031 202.871094 201.765625 203.226562 L 202.527344 205.265625 " fill-opacity="1" fill-rule="nonzero"/><path fill="#b33219" d="M 121.472656 268.886719 C 118.421875 266.445312 115.507812 263.835938 112.746094 261.078125 C 103.859375 252.183594 96.542969 241.730469 91.253906 230.15625 C 103.191406 230.035156 115.167969 228.921875 127.046875 227.097656 C 123.332031 239.109375 121.386719 251.699219 121.386719 264.429688 C 121.386719 265.917969 121.417969 267.40625 121.472656 268.886719 M 91.109375 221.332031 C 91.109375 221.332031 91.109375 221.332031 91.105469 221.332031 C 89.964844 221.332031 88.824219 221.324219 87.683594 221.304688 C 83.828125 210.320312 81.730469 198.503906 81.726562 186.199219 C 81.730469 179.074219 82.433594 172.117188 83.773438 165.390625 C 95.238281 171.238281 105.113281 178.699219 113.601562 187.425781 C 120.902344 194.925781 127.183594 203.359375 132.5625 212.496094 C 131.757812 214.285156 130.996094 216.097656 130.273438 217.921875 C 117.253906 220.070312 104.113281 221.332031 91.109375 221.332031 M 138.40625 201.066406 C 133.472656 193.570312 127.894531 186.566406 121.59375 180.191406 C 111.683594 170.164062 99.992188 161.699219 86.296875 155.34375 C 91.414062 138.511719 100.613281 123.460938 112.746094 111.328125 C 117.78125 106.296875 123.320312 101.769531 129.273438 97.828125 C 129.082031 100.800781 128.988281 103.777344 128.988281 106.753906 C 129 134.230469 136.847656 161.617188 148.050781 186.695312 C 144.503906 191.269531 141.28125 196.074219 138.40625 201.066406 M 155.941406 177.472656 C 146.351562 154.664062 140.007812 129.988281 140.019531 105.765625 C 140.019531 100.886719 140.273438 96.019531 140.8125 91.199219 C 154.925781 84.226562 170.816406 80.3125 187.621094 80.3125 C 195.953125 80.3125 204.058594 81.273438 211.832031 83.09375 C 203.585938 92.011719 197.445312 103.367188 193.257812 115.589844 C 189.039062 127.925781 186.808594 141.15625 186.484375 153.753906 C 176.289062 159.414062 166.839844 166.492188 158.496094 174.839844 C 157.628906 175.707031 156.78125 176.582031 155.941406 177.472656 M 197.851562 148.160156 C 198.546875 140.8125 199.960938 133.480469 201.738281 126.335938 L 201.738281 126.339844 C 203.535156 119.175781 205.960938 111.59375 209.214844 104.421875 C 212.320312 97.5625 216.183594 91.078125 220.933594 85.660156 C 236.773438 90.90625 250.957031 99.789062 262.496094 111.328125 C 271.597656 120.429688 279.050781 131.175781 284.367188 143.078125 C 272.671875 139.574219 260.449219 137.730469 248.089844 137.730469 C 230.707031 137.730469 213.597656 141.359375 197.851562 148.160156 " fill-opacity="1" fill-rule="nonzero"/><path fill="#231f20" d="M 121.609375 271.757812 C 107.53125 260.882812 96.210938 246.609375 88.875 230.164062 C 88.960938 230.167969 89.042969 230.167969 89.125 230.167969 C 89.835938 230.167969 90.542969 230.160156 91.253906 230.15625 C 96.542969 241.730469 103.859375 252.183594 112.746094 261.078125 C 115.507812 263.835938 118.421875 266.445312 121.472656 268.886719 C 121.507812 269.847656 121.554688 270.800781 121.609375 271.757812 M 87.683594 221.304688 C 87.015625 221.292969 86.347656 221.277344 85.675781 221.257812 C 85.65625 221.257812 85.636719 221.257812 85.617188 221.257812 C 85.535156 221.257812 85.453125 221.265625 85.371094 221.273438 C 81.597656 210.277344 79.550781 198.476562 79.550781 186.199219 C 79.550781 178.726562 80.3125 171.433594 81.757812 164.390625 C 82.433594 164.71875 83.105469 165.050781 83.773438 165.390625 C 82.433594 172.117188 81.730469 179.074219 81.726562 186.199219 C 81.730469 198.503906 83.828125 210.320312 87.683594 221.304688 M 86.296875 155.34375 C 85.632812 155.035156 84.964844 154.734375 84.296875 154.4375 C 91.894531 129.707031 108.128906 108.753906 129.476562 95.101562 C 129.402344 96.011719 129.332031 96.917969 129.273438 97.828125 C 123.320312 101.769531 117.78125 106.296875 112.746094 111.328125 C 100.613281 123.460938 91.414062 138.511719 86.296875 155.34375 M 285.234375 143.34375 C 284.945312 143.253906 284.65625 143.167969 284.367188 143.078125 C 279.050781 131.175781 271.597656 120.429688 262.496094 111.328125 C 250.957031 99.789062 236.773438 90.90625 220.933594 85.660156 C 221.152344 85.410156 221.371094 85.164062 221.597656 84.917969 C 221.890625 84.589844 222.074219 84.191406 222.136719 83.765625 C 250.960938 93.480469 274.351562 115.011719 286.535156 142.597656 C 286.070312 142.679688 285.640625 142.90625 285.308594 143.261719 C 285.285156 143.289062 285.257812 143.316406 285.234375 143.34375 M 140.8125 91.199219 C 140.855469 90.824219 140.898438 90.453125 140.9375 90.085938 C 140.992188 89.648438 140.910156 89.210938 140.714844 88.832031 C 154.902344 81.980469 170.816406 78.136719 187.621094 78.136719 C 196.570312 78.136719 205.261719 79.222656 213.574219 81.273438 C 212.984375 81.871094 212.402344 82.476562 211.832031 83.09375 C 204.058594 81.273438 195.953125 80.3125 187.621094 80.3125 C 170.816406 80.3125 154.925781 84.226562 140.8125 91.199219 " fill-opacity="1" fill-rule="nonzero"/><path fill="#231f20" d="M 89.128906 225.8125 C 89.128906 225.8125 89.128906 225.8125 89.125 225.8125 C 89.039062 225.8125 88.953125 225.8125 88.867188 225.808594 C 88.847656 225.765625 88.828125 225.71875 88.8125 225.675781 C 89.574219 225.683594 90.339844 225.683594 91.105469 225.683594 C 95.496094 225.683594 99.902344 225.546875 104.308594 225.28125 C 99.238281 225.625 94.175781 225.8125 89.128906 225.8125 M 134.804688 207.777344 C 129.605469 199.328125 123.613281 191.46875 116.722656 184.386719 C 107.601562 175.011719 96.902344 167.011719 84.4375 160.855469 C 84.550781 160.382812 84.671875 159.914062 84.792969 159.449219 C 97.867188 165.5625 109.003906 173.652344 118.496094 183.253906 C 125.117188 189.949219 130.929688 197.382812 136.023438 205.394531 C 135.605469 206.183594 135.199219 206.976562 134.804688 207.777344 M 151.125 182.886719 C 140.585938 158.757812 133.335938 132.660156 133.34375 106.753906 C 133.34375 102.816406 133.511719 98.878906 133.859375 94.953125 C 134.628906 94.503906 135.410156 94.066406 136.191406 93.636719 C 135.835938 97.664062 135.664062 101.710938 135.664062 105.765625 C 135.671875 131.421875 142.519531 157.300781 152.71875 181.019531 C 152.183594 181.636719 151.648438 182.257812 151.125 182.886719 M 190.925781 151.398438 C 191.449219 139.980469 193.585938 128.078125 197.378906 117.003906 C 201.367188 105.335938 207.191406 94.609375 214.808594 86.285156 C 211.007812 91.289062 207.863281 96.855469 205.25 102.625 C 201.859375 110.105469 199.359375 117.917969 197.515625 125.28125 L 197.515625 125.285156 C 195.5 133.367188 193.925781 141.761719 193.3125 150.226562 C 192.511719 150.609375 191.714844 151 190.925781 151.398438 " fill-opacity="1" fill-rule="nonzero"/><path fill="#231f20" d="M 89.125 230.167969 C 89.042969 230.167969 88.960938 230.167969 88.875 230.164062 C 88.550781 229.441406 88.238281 228.714844 87.929688 227.980469 C 87.902344 227.980469 87.871094 227.980469 87.84375 227.980469 C 87.792969 227.980469 87.742188 227.980469 87.695312 227.980469 C 87.640625 227.980469 87.589844 227.980469 87.535156 227.980469 C 87.492188 227.980469 87.449219 227.980469 87.40625 227.980469 C 86.777344 226.476562 86.175781 224.96875 85.617188 223.433594 C 85.792969 223.441406 85.964844 223.441406 86.140625 223.445312 C 85.878906 222.722656 85.621094 222 85.371094 221.273438 C 85.453125 221.265625 85.535156 221.257812 85.617188 221.257812 C 85.636719 221.257812 85.65625 221.257812 85.675781 221.257812 C 86.347656 221.277344 87.015625 221.292969 87.683594 221.304688 C 88.824219 221.324219 89.964844 221.332031 91.105469 221.332031 C 91.109375 221.332031 91.109375 221.332031 91.109375 221.332031 C 104.113281 221.332031 117.253906 220.070312 130.273438 217.921875 C 129.082031 220.9375 128.007812 224 127.046875 227.097656 C 115.167969 228.921875 103.191406 230.035156 91.253906 230.15625 C 90.542969 230.160156 89.835938 230.167969 89.125 230.167969 M 88.867188 225.808594 C 88.953125 225.8125 89.039062 225.8125 89.125 225.8125 C 89.128906 225.8125 89.128906 225.8125 89.128906 225.8125 C 94.175781 225.8125 99.238281 225.625 104.308594 225.28125 C 99.902344 225.546875 95.496094 225.683594 91.105469 225.683594 C 90.339844 225.683594 89.574219 225.683594 88.8125 225.675781 C 88.828125 225.71875 88.847656 225.765625 88.867188 225.808594 M 132.5625 212.496094 C 127.183594 203.359375 120.902344 194.925781 113.601562 187.425781 C 105.113281 178.699219 95.238281 171.238281 83.773438 165.390625 C 83.105469 165.050781 82.433594 164.71875 81.757812 164.390625 C 81.90625 163.660156 82.0625 162.933594 82.230469 162.207031 C 82.121094 162.15625 82.019531 162.101562 81.914062 162.050781 C 82.351562 160.144531 82.835938 158.265625 83.371094 156.40625 C 83.472656 156.453125 83.570312 156.5 83.671875 156.546875 C 83.871094 155.839844 84.082031 155.136719 84.296875 154.4375 C 84.964844 154.734375 85.632812 155.035156 86.296875 155.34375 C 99.992188 161.699219 111.683594 170.164062 121.59375 180.191406 C 127.894531 186.566406 133.472656 193.570312 138.40625 201.066406 C 137.582031 202.492188 136.789062 203.9375 136.023438 205.394531 C 130.929688 197.382812 125.117188 189.949219 118.496094 183.253906 C 109.003906 173.652344 97.867188 165.5625 84.792969 159.449219 C 84.671875 159.914062 84.550781 160.382812 84.4375 160.855469 C 96.902344 167.011719 107.601562 175.011719 116.722656 184.386719 C 123.613281 191.46875 129.605469 199.328125 134.804688 207.777344 C 134.023438 209.335938 133.277344 210.90625 132.5625 212.496094 M 148.050781 186.695312 C 136.847656 161.617188 129 134.230469 128.988281 106.753906 C 128.988281 103.777344 129.082031 100.800781 129.273438 97.828125 C 129.332031 96.917969 129.402344 96.011719 129.476562 95.101562 C 130.242188 94.613281 131.015625 94.128906 131.792969 93.660156 L 131.796875 93.644531 C 132.0625 93.480469 132.339844 93.335938 132.609375 93.179688 C 135.242188 91.621094 137.945312 90.167969 140.714844 88.832031 C 140.910156 89.210938 140.992188 89.648438 140.9375 90.085938 C 140.898438 90.453125 140.855469 90.824219 140.8125 91.199219 C 140.273438 96.019531 140.019531 100.886719 140.019531 105.765625 C 140.007812 129.988281 146.351562 154.664062 155.941406 177.472656 C 154.84375 178.636719 153.769531 179.820312 152.71875 181.019531 C 142.519531 157.300781 135.671875 131.421875 135.664062 105.765625 C 135.664062 101.710938 135.835938 97.664062 136.191406 93.636719 C 135.410156 94.066406 134.628906 94.503906 133.859375 94.953125 C 133.511719 98.878906 133.34375 102.816406 133.34375 106.753906 C 133.335938 132.660156 140.585938 158.757812 151.125 182.886719 C 150.074219 184.136719 149.046875 185.40625 148.050781 186.695312 M 186.484375 153.753906 C 186.808594 141.15625 189.039062 127.925781 193.257812 115.589844 C 197.445312 103.367188 203.585938 92.011719 211.832031 83.09375 C 212.402344 82.476562 212.984375 81.871094 213.574219 81.273438 C 216.476562 81.988281 219.335938 82.820312 222.136719 83.765625 C 222.074219 84.191406 221.890625 84.589844 221.597656 84.917969 C 221.371094 85.164062 221.152344 85.410156 220.933594 85.660156 C 216.183594 91.078125 212.320312 97.5625 209.214844 104.421875 C 205.960938 111.59375 203.535156 119.175781 201.738281 126.339844 L 201.738281 126.335938 C 199.960938 133.480469 198.546875 140.8125 197.851562 148.160156 C 196.324219 148.816406 194.808594 149.507812 193.3125 150.226562 C 193.925781 141.761719 195.5 133.367188 197.515625 125.285156 L 197.515625 125.28125 C 199.359375 117.917969 201.859375 110.105469 205.25 102.625 C 207.863281 96.855469 211.007812 91.289062 214.808594 86.285156 C 207.191406 94.609375 201.367188 105.335938 197.378906 117.003906 C 193.585938 128.078125 191.449219 139.980469 190.925781 151.398438 C 189.425781 152.152344 187.949219 152.9375 186.484375 153.753906 M 287.113281 143.9375 C 286.488281 143.734375 285.859375 143.539062 285.234375 143.34375 C 285.257812 143.316406 285.285156 143.289062 285.308594 143.261719 C 285.640625 142.90625 286.070312 142.679688 286.535156 142.597656 C 286.726562 143.042969 286.921875 143.488281 287.113281 143.9375 " fill-opacity="1" fill-rule="nonzero"/><g clip-path="url(#1c6bdba1a0)"><path fill="#ffffff" d="M 321.292969 98.59375 C 321.199219 98.625 321.011719 98.65625 320.871094 98.664062 C 320.609375 98.679688 320.4375 98.742188 319.5 99.164062 C 318.875 99.445312 317.929688 100.089844 317.480469 100.519531 C 316.789062 101.1875 316.140625 102.441406 315.851562 103.660156 C 315.503906 105.097656 315.695312 107.160156 316.265625 108.207031 C 316.351562 108.355469 316.417969 108.515625 316.417969 108.558594 C 316.417969 108.597656 316.496094 108.734375 316.597656 108.859375 C 316.695312 108.980469 316.773438 109.113281 316.777344 109.148438 C 316.777344 109.257812 318.136719 110.550781 318.480469 110.78125 C 318.949219 111.082031 319.8125 111.511719 320.070312 111.5625 C 320.195312 111.582031 320.308594 111.632812 320.328125 111.667969 C 320.355469 111.703125 320.476562 111.726562 320.601562 111.726562 C 320.71875 111.722656 320.863281 111.761719 320.90625 111.804688 C 321.035156 111.925781 323.414062 111.878906 323.835938 111.746094 C 325.324219 111.28125 325.785156 111.070312 326.4375 110.582031 C 327.023438 110.140625 327.800781 109.269531 328.082031 108.746094 C 328.132812 108.644531 328.25 108.464844 328.335938 108.335938 C 328.417969 108.21875 328.484375 108.097656 328.484375 108.070312 C 328.484375 108.050781 328.5625 107.855469 328.65625 107.636719 C 328.757812 107.425781 328.855469 107.078125 328.878906 106.855469 C 328.90625 106.640625 328.957031 106.265625 329 106.011719 C 329.148438 105.113281 328.832031 103.019531 328.484375 102.53125 C 328.425781 102.449219 328.375 102.332031 328.375 102.269531 C 328.371094 102.207031 328.308594 102.105469 328.238281 102.042969 C 328.160156 101.976562 328.074219 101.832031 328.050781 101.722656 C 328.019531 101.609375 327.972656 101.523438 327.9375 101.523438 C 327.902344 101.523438 327.835938 101.449219 327.800781 101.359375 C 327.648438 100.964844 326.648438 99.957031 326.203125 99.730469 C 326.070312 99.671875 325.964844 99.589844 325.960938 99.554688 C 325.960938 99.492188 325.265625 99.144531 325.136719 99.148438 C 325.09375 99.148438 325.050781 99.121094 325.050781 99.085938 C 325.050781 99.050781 324.953125 98.996094 324.828125 98.980469 C 324.703125 98.953125 324.554688 98.90625 324.492188 98.882812 C 324.253906 98.769531 323.808594 98.660156 323.410156 98.605469 C 322.800781 98.53125 321.492188 98.523438 321.292969 98.59375 Z M 321.292969 98.59375 " fill-opacity="1" fill-rule="nonzero"/></g><g clip-path="url(#5cb7e5a70c)"><path fill="#ffffff" d="M 318.703125 122.933594 C 318.519531 123.125 318.539062 123.328125 318.78125 123.765625 C 319.34375 124.789062 319.667969 125.429688 319.628906 125.464844 C 319.578125 125.519531 319.585938 125.535156 319.292969 125.074219 C 319.066406 124.71875 318.972656 124.546875 318.71875 124.011719 C 318.574219 123.695312 318.359375 123.496094 318.175781 123.5 C 317.988281 123.503906 317.613281 123.859375 317.613281 124.03125 C 317.617188 124.128906 318.253906 125.429688 318.472656 125.785156 C 318.511719 125.839844 318.632812 126.074219 318.742188 126.300781 C 318.855469 126.527344 319.070312 126.882812 319.214844 127.097656 C 319.511719 127.519531 319.535156 127.605469 319.394531 127.753906 C 319.238281 127.90625 319.167969 127.882812 318.785156 127.515625 C 318.59375 127.324219 318.382812 127.175781 318.320312 127.175781 C 318.195312 127.179688 317.542969 126.726562 317.222656 126.417969 C 316.988281 126.195312 316.691406 126.171875 316.527344 126.363281 C 316.34375 126.566406 316.390625 126.867188 316.648438 127.160156 C 316.902344 127.453125 318.003906 128.363281 318.101562 128.359375 C 318.28125 128.355469 318.75 129 319.0625 129.6875 C 319.257812 130.101562 319.480469 130.535156 319.574219 130.648438 C 319.664062 130.765625 319.765625 130.929688 319.789062 131.015625 C 319.816406 131.097656 320.042969 131.363281 320.300781 131.609375 L 320.757812 132.058594 L 320.75 133.710938 C 320.746094 134.609375 320.707031 135.507812 320.675781 135.703125 C 320.644531 135.890625 320.597656 136.3125 320.570312 136.640625 C 320.535156 136.96875 320.464844 137.449219 320.410156 137.71875 C 320.351562 137.984375 320.28125 138.347656 320.25 138.519531 C 320.21875 138.695312 320.148438 139.070312 320.09375 139.355469 C 320.042969 139.640625 319.972656 140.054688 319.9375 140.261719 C 319.871094 140.726562 319.769531 141.292969 319.671875 141.757812 C 319.628906 141.976562 319.617188 142.773438 319.644531 143.875 C 319.671875 144.855469 319.667969 145.828125 319.636719 146.042969 C 319.601562 146.277344 319.609375 146.695312 319.648438 147.082031 C 319.699219 147.5 319.699219 147.929688 319.664062 148.253906 C 319.636719 148.539062 319.59375 148.894531 319.578125 149.046875 C 319.558594 149.203125 319.519531 149.390625 319.488281 149.464844 C 319.386719 149.695312 319.167969 150.875 318.984375 152.148438 C 318.785156 153.476562 318.925781 154.863281 319.414062 156.582031 C 319.46875 156.769531 319.457031 156.921875 319.351562 157.242188 C 319.277344 157.472656 319.195312 157.8125 319.15625 158.007812 C 319.125 158.195312 319.058594 158.558594 319.007812 158.808594 C 318.949219 159.0625 318.875 159.542969 318.847656 159.890625 C 318.769531 160.648438 318.871094 162.914062 318.988281 163.253906 C 319.175781 163.777344 319.386719 164.257812 319.496094 164.421875 C 319.558594 164.519531 319.632812 164.640625 319.652344 164.695312 C 319.675781 164.75 319.859375 165.0625 320.0625 165.375 C 320.449219 165.984375 320.476562 166.0625 320.355469 166.1875 C 320.308594 166.238281 320.289062 166.792969 320.308594 167.863281 C 320.328125 168.890625 320.367188 169.507812 320.417969 169.597656 C 320.460938 169.671875 320.5 169.832031 320.503906 169.941406 C 320.503906 170.050781 320.578125 170.21875 320.667969 170.3125 C 320.753906 170.402344 320.875 170.613281 320.933594 170.785156 C 320.988281 170.953125 321.058594 171.125 321.09375 171.164062 C 321.125 171.207031 321.257812 171.441406 321.390625 171.679688 C 321.527344 171.921875 321.707031 172.234375 321.792969 172.386719 C 321.878906 172.53125 322 172.792969 322.066406 172.972656 C 322.125 173.144531 322.21875 173.335938 322.277344 173.398438 C 322.332031 173.453125 322.375 173.535156 322.375 173.578125 C 322.378906 173.644531 322.550781 174.003906 322.851562 174.582031 C 322.910156 174.691406 322.953125 174.816406 322.957031 174.871094 C 322.957031 174.917969 323.007812 175.050781 323.066406 175.152344 C 323.121094 175.261719 323.175781 175.421875 323.175781 175.503906 C 323.179688 175.589844 323.214844 175.675781 323.25 175.699219 C 323.292969 175.71875 323.320312 175.8125 323.324219 175.90625 C 323.324219 175.996094 323.371094 176.175781 323.425781 176.296875 C 323.578125 176.640625 323.691406 177 323.695312 177.152344 C 323.695312 177.230469 323.738281 177.347656 323.796875 177.421875 C 323.847656 177.496094 323.910156 177.671875 323.933594 177.800781 C 324.003906 178.230469 324.128906 178.597656 324.199219 178.617188 C 324.242188 178.628906 324.277344 178.746094 324.28125 178.871094 C 324.285156 179.003906 324.320312 179.125 324.363281 179.152344 C 324.40625 179.179688 324.421875 179.269531 324.394531 179.382812 C 324.371094 179.480469 324.332031 180.113281 324.316406 180.777344 C 324.273438 182.042969 324.210938 182.722656 324.09375 183.140625 C 324.054688 183.273438 324.023438 183.53125 324.027344 183.710938 C 324.03125 184.039062 323.898438 184.914062 323.773438 185.339844 C 323.742188 185.460938 323.714844 185.648438 323.71875 185.757812 C 323.722656 185.871094 323.691406 186.070312 323.652344 186.203125 C 323.617188 186.335938 323.5625 186.683594 323.535156 186.96875 C 323.511719 187.253906 323.4375 187.804688 323.382812 188.1875 C 323.328125 188.570312 323.265625 189.257812 323.246094 189.71875 C 323.234375 190.175781 323.191406 190.59375 323.167969 190.640625 C 323.132812 190.691406 323.089844 191.066406 323.0625 191.476562 C 322.992188 192.53125 322.90625 193.289062 322.8125 193.597656 C 322.714844 193.933594 322.824219 194.132812 323.417969 194.695312 L 323.828125 195.089844 L 323.773438 195.558594 C 323.664062 196.425781 323.601562 198.65625 323.652344 199.390625 C 323.746094 200.597656 323.847656 201.253906 324.101562 202.226562 C 324.265625 202.847656 324.34375 203.1875 324.402344 203.503906 C 324.535156 204.246094 324.769531 205.261719 325.015625 206.132812 C 325.058594 206.28125 325.128906 206.871094 325.179688 207.445312 C 325.226562 208.015625 325.292969 208.652344 325.339844 208.859375 C 325.378906 209.066406 325.429688 210.09375 325.453125 211.148438 C 325.488281 212.671875 325.515625 213.097656 325.59375 213.234375 C 325.652344 213.328125 325.699219 213.488281 325.707031 213.59375 C 325.707031 213.695312 325.746094 213.800781 325.78125 213.820312 C 325.820312 213.839844 325.851562 213.921875 325.851562 213.992188 C 325.855469 214.0625 325.90625 214.164062 325.960938 214.226562 C 326.019531 214.28125 326.066406 214.355469 326.070312 214.398438 C 326.070312 214.433594 326.148438 214.609375 326.25 214.789062 C 326.351562 214.96875 326.429688 215.152344 326.429688 215.195312 C 326.433594 215.246094 326.480469 215.320312 326.539062 215.367188 C 326.59375 215.414062 326.644531 215.550781 326.648438 215.671875 C 326.65625 216.140625 327.046875 216.605469 327.4375 216.597656 C 327.511719 216.597656 327.570312 216.625 327.570312 216.667969 C 327.570312 216.699219 327.691406 216.78125 327.828125 216.847656 C 328.222656 217.023438 328.363281 217.183594 328.3125 217.402344 C 328.183594 217.980469 327.753906 220.488281 327.65625 221.246094 C 327.625 221.453125 327.546875 222.003906 327.472656 222.464844 C 327.359375 223.171875 327.347656 223.589844 327.371094 225.277344 C 327.394531 226.523438 327.441406 227.445312 327.503906 227.773438 C 327.621094 228.4375 327.714844 229.074219 327.816406 230 C 327.867188 230.410156 327.90625 230.761719 327.914062 230.796875 C 327.921875 230.824219 327.910156 230.90625 327.875 230.976562 C 327.824219 231.105469 327.851562 231.449219 328.058594 233.277344 C 328.234375 234.855469 328.34375 236.269531 328.4375 238.246094 L 328.519531 239.882812 L 328.355469 240.121094 C 328.132812 240.453125 328.039062 240.515625 327.609375 240.609375 C 326.828125 240.789062 326.578125 241.175781 326.597656 242.183594 C 326.605469 242.488281 326.582031 242.710938 326.539062 242.710938 C 326.421875 242.714844 325.945312 243.257812 325.820312 243.53125 C 325.660156 243.886719 325.691406 245.128906 325.871094 245.535156 C 326.144531 246.140625 326.425781 246.664062 326.554688 246.796875 C 326.625 246.875 326.6875 246.957031 326.691406 246.976562 C 326.691406 246.996094 326.726562 247.050781 326.761719 247.101562 C 326.925781 247.277344 327.347656 247.941406 327.519531 248.285156 C 327.714844 248.683594 327.746094 248.976562 327.679688 249.851562 C 327.648438 250.253906 327.664062 250.460938 327.753906 250.71875 C 327.820312 250.898438 327.90625 251.179688 327.960938 251.34375 C 328.011719 251.503906 328.089844 251.667969 328.148438 251.710938 C 328.195312 251.75 328.238281 251.847656 328.242188 251.910156 C 328.242188 252.0625 329.035156 252.832031 329.332031 252.976562 C 329.441406 253.03125 329.597656 253.140625 329.675781 253.207031 C 329.753906 253.273438 329.886719 253.355469 329.960938 253.375 C 330.046875 253.402344 330.125 253.433594 330.144531 253.460938 C 330.230469 253.558594 330.65625 253.738281 330.808594 253.734375 C 330.890625 253.734375 331.003906 253.777344 331.054688 253.832031 C 331.101562 253.886719 331.207031 253.933594 331.292969 253.933594 C 331.375 253.929688 331.480469 253.964844 331.523438 254.003906 C 331.628906 254.105469 334.027344 254.0625 334.128906 253.957031 C 334.171875 253.914062 334.300781 253.875 334.425781 253.875 C 334.546875 253.871094 334.683594 253.820312 334.730469 253.761719 C 334.777344 253.707031 334.867188 253.65625 334.929688 253.65625 C 335.144531 253.652344 335.484375 253.234375 335.480469 252.980469 L 335.476562 252.75 L 336.191406 252.75 C 336.800781 252.753906 336.925781 252.730469 337.082031 252.609375 C 337.183594 252.53125 337.273438 252.4375 337.273438 252.410156 C 337.273438 252.375 337.316406 252.234375 337.378906 252.101562 C 337.476562 251.894531 337.484375 251.78125 337.394531 251.191406 C 337.234375 250.121094 337.214844 250.003906 337.148438 249.960938 C 337.113281 249.941406 337.085938 249.875 337.085938 249.8125 C 337.082031 249.75 337.039062 249.617188 336.980469 249.523438 C 336.527344 248.71875 336.484375 248.621094 336.5625 248.542969 C 336.683594 248.417969 336.652344 248.222656 336.460938 247.949219 C 336.359375 247.8125 336.28125 247.640625 336.277344 247.570312 C 336.273438 247.417969 336.027344 247.046875 335.835938 246.921875 C 335.746094 246.859375 335.707031 246.742188 335.703125 246.527344 C 335.699219 246.359375 335.667969 246.203125 335.628906 246.179688 C 335.59375 246.160156 335.550781 245.855469 335.546875 245.515625 C 335.535156 245.09375 335.496094 244.84375 335.433594 244.742188 C 335.277344 244.515625 335.242188 243.511719 335.390625 243.300781 C 335.453125 243.207031 335.5 243.074219 335.496094 243.003906 C 335.496094 242.886719 335.507812 242.886719 335.648438 242.980469 C 335.742188 243.042969 335.949219 243.085938 336.125 243.082031 C 336.53125 243.074219 336.742188 242.871094 336.738281 242.503906 C 336.734375 242.273438 336.710938 242.238281 336.472656 242.175781 C 336.328125 242.128906 336.179688 242.070312 336.144531 242.035156 C 336.066406 241.972656 336.398438 241.449219 336.550781 241.382812 C 336.605469 241.359375 336.644531 241.285156 336.644531 241.214844 C 336.640625 241.136719 336.738281 241.039062 336.894531 240.953125 C 337.046875 240.878906 337.113281 240.808594 337.066406 240.796875 C 337.015625 240.777344 336.917969 240.8125 336.851562 240.875 C 336.707031 241.011719 336.074219 241.175781 335.917969 241.125 C 335.792969 241.078125 335.761719 240.871094 335.878906 240.867188 C 335.996094 240.867188 336.140625 240.648438 336.144531 240.472656 C 336.140625 240.3125 335.769531 239.898438 335.527344 239.769531 C 335.441406 239.730469 335.261719 239.699219 335.128906 239.703125 L 334.878906 239.707031 L 334.867188 239.160156 C 334.863281 238.855469 334.886719 238.589844 334.921875 238.566406 C 334.953125 238.546875 335 238.359375 335.023438 238.144531 C 335.039062 237.933594 335.089844 237.746094 335.125 237.722656 C 335.160156 237.695312 335.183594 237.5625 335.183594 237.417969 C 335.179688 237.277344 335.210938 237.125 335.253906 237.082031 C 335.292969 237.039062 335.351562 236.875 335.382812 236.71875 C 335.417969 236.558594 335.46875 236.316406 335.492188 236.167969 C 335.523438 236.03125 335.582031 235.839844 335.621094 235.757812 C 335.667969 235.671875 335.703125 235.527344 335.699219 235.4375 C 335.699219 235.339844 335.746094 235.226562 335.800781 235.179688 C 335.855469 235.128906 335.898438 234.980469 335.898438 234.855469 C 335.894531 234.726562 335.917969 234.566406 335.953125 234.496094 C 336.019531 234.355469 336.085938 234.144531 336.390625 233.15625 C 336.515625 232.75 336.640625 232.367188 336.679688 232.300781 C 336.714844 232.230469 336.746094 232.128906 336.746094 232.070312 C 336.746094 232.015625 336.769531 231.910156 336.804688 231.839844 C 337.078125 231.253906 337.207031 230.800781 337.203125 230.453125 C 337.199219 230.292969 337.300781 229.777344 337.429688 229.304688 C 337.558594 228.828125 337.71875 228.207031 337.785156 227.921875 C 337.855469 227.636719 337.9375 227.300781 337.972656 227.191406 C 338.003906 227.070312 338.046875 226.847656 338.074219 226.683594 C 338.097656 226.523438 338.144531 226.367188 338.171875 226.347656 C 338.207031 226.324219 338.230469 226.214844 338.230469 226.101562 C 338.226562 225.984375 338.25 225.832031 338.292969 225.761719 C 338.324219 225.691406 338.382812 225.433594 338.417969 225.191406 C 338.457031 224.945312 338.523438 224.488281 338.574219 224.160156 C 338.621094 223.832031 338.695312 223.207031 338.71875 222.769531 C 338.773438 221.996094 338.886719 221.28125 338.980469 221.132812 C 339 221.089844 339.039062 220.945312 339.066406 220.796875 C 339.089844 220.660156 339.136719 220.539062 339.171875 220.539062 C 339.207031 220.539062 339.230469 220.449219 339.230469 220.335938 C 339.226562 220.21875 339.253906 220.113281 339.285156 220.085938 C 339.320312 220.066406 339.375 219.945312 339.398438 219.828125 C 339.464844 219.492188 339.617188 219.28125 339.800781 219.277344 C 340.078125 219.273438 340.175781 219.035156 340.296875 218.054688 C 340.40625 217.183594 340.480469 216.726562 340.539062 216.59375 C 340.640625 216.363281 340.800781 215.386719 340.792969 215.0625 C 340.792969 214.894531 340.824219 214.734375 340.855469 214.710938 C 340.898438 214.691406 340.921875 214.496094 340.917969 214.296875 C 340.914062 214.085938 340.949219 213.78125 341.003906 213.621094 C 341.054688 213.453125 341.113281 213.117188 341.128906 212.867188 C 341.179688 211.984375 341.335938 210.601562 341.421875 210.121094 C 341.554688 209.425781 341.808594 208.175781 341.96875 207.472656 C 342.011719 207.277344 342.070312 207 342.09375 206.847656 C 342.121094 206.695312 342.199219 206.378906 342.253906 206.148438 C 342.4375 205.472656 342.5625 204.847656 342.761719 203.640625 C 342.925781 202.667969 342.753906 199.617188 342.449219 198.027344 C 342.378906 197.644531 342.292969 197.160156 342.253906 196.953125 C 342.222656 196.746094 342.121094 196.261719 342.03125 195.882812 C 341.941406 195.46875 341.867188 194.933594 341.859375 194.554688 C 341.855469 194.207031 341.8125 193.832031 341.761719 193.722656 C 341.71875 193.617188 341.644531 193.121094 341.609375 192.628906 C 341.570312 192.128906 341.484375 191.480469 341.414062 191.175781 C 341.347656 190.871094 341.261719 190.484375 341.230469 190.3125 C 341.171875 190.035156 341.121094 189.863281 340.929688 189.378906 C 340.894531 189.304688 340.8125 189.082031 340.746094 188.898438 C 340.613281 188.53125 340.460938 188.179688 340.324219 187.90625 C 340.261719 187.78125 340.21875 186.339844 340.152344 182.113281 C 340.070312 176.757812 340.035156 175.855469 339.8125 174.167969 C 339.773438 173.882812 339.703125 173.523438 339.660156 173.371094 C 339.617188 173.21875 339.574219 172.929688 339.570312 172.730469 C 339.566406 172.535156 339.535156 172.367188 339.496094 172.371094 C 339.460938 172.371094 339.425781 172.308594 339.421875 172.230469 C 339.421875 172.148438 339.371094 171.996094 339.3125 171.894531 C 339.253906 171.785156 339.1875 171.570312 339.15625 171.410156 C 339.109375 171.132812 339.117188 171.113281 339.539062 170.648438 C 339.777344 170.386719 340.066406 170.027344 340.175781 169.859375 C 340.289062 169.683594 340.507812 169.367188 340.667969 169.140625 C 340.824219 168.921875 340.953125 168.710938 340.953125 168.675781 C 340.949219 168.636719 341.019531 168.515625 341.105469 168.402344 C 341.28125 168.164062 341.410156 167.96875 341.460938 167.820312 C 341.546875 167.589844 341.714844 167.199219 341.921875 166.734375 C 342.039062 166.464844 342.183594 166.042969 342.25 165.792969 C 342.308594 165.542969 342.390625 165.199219 342.4375 165.027344 C 342.488281 164.851562 342.570312 164.460938 342.636719 164.15625 C 342.699219 163.847656 342.8125 163.289062 342.894531 162.914062 C 342.980469 162.539062 343.046875 162.023438 343.039062 161.765625 C 343.023438 160.796875 342.328125 159.058594 341.65625 158.273438 C 341.492188 158.082031 341.230469 157.777344 341.066406 157.589844 C 340.40625 156.820312 338.945312 155.5 337.839844 154.667969 C 337.507812 154.425781 337.191406 154.179688 337.128906 154.132812 C 336.9375 153.984375 336.117188 153.445312 336.011719 153.398438 C 335.90625 153.351562 335.222656 152.878906 334.484375 152.34375 C 333.96875 151.964844 333.679688 151.707031 332.523438 150.605469 C 331.660156 149.78125 331.589844 149.6875 331.433594 149.265625 C 331.347656 149.019531 331.269531 148.699219 331.269531 148.5625 C 331.265625 148.429688 331.21875 148.117188 331.160156 147.875 C 331.105469 147.636719 331.011719 147.15625 330.957031 146.820312 C 330.800781 145.828125 330.75 145.675781 330.410156 145.378906 C 330.238281 145.222656 330.089844 145.039062 330.074219 144.960938 C 330.058594 144.886719 329.839844 144.695312 329.554688 144.511719 C 329.28125 144.339844 328.957031 144.066406 328.832031 143.902344 C 328.605469 143.609375 328.171875 143.367188 327.875 143.371094 C 327.789062 143.375 327.621094 143.328125 327.515625 143.273438 C 327.40625 143.222656 327.257812 143.175781 327.195312 143.175781 C 327.132812 143.179688 327.0625 143.152344 327.042969 143.117188 C 327.019531 143.082031 326.882812 143.042969 326.742188 143.027344 C 326.597656 143.015625 326.277344 142.964844 326.027344 142.929688 C 325.414062 142.828125 325.261719 142.875 325.265625 143.171875 C 325.269531 143.351562 325.328125 143.457031 325.488281 143.585938 C 325.714844 143.769531 325.734375 143.96875 325.523438 143.972656 C 325.449219 143.972656 325.421875 144.050781 325.425781 144.253906 C 325.433594 144.597656 325.523438 144.640625 326.53125 144.746094 C 327.253906 144.820312 327.28125 144.828125 327.726562 145.25 C 327.996094 145.5 328.367188 146.027344 328.414062 146.214844 C 328.441406 146.324219 328.5 146.414062 328.542969 146.414062 C 328.597656 146.414062 328.589844 146.441406 328.535156 146.496094 C 328.488281 146.546875 328.457031 146.636719 328.457031 146.699219 C 328.457031 146.769531 328.40625 146.875 328.34375 146.945312 C 328.234375 147.058594 328.214844 147.050781 328.027344 146.832031 C 327.921875 146.710938 327.832031 146.578125 327.828125 146.546875 C 327.828125 146.378906 327.503906 145.871094 327.207031 145.558594 C 326.710938 145.046875 326.292969 145 325.996094 145.429688 C 325.867188 145.617188 325.863281 145.671875 325.9375 145.90625 C 325.980469 146.058594 326.066406 146.226562 326.125 146.277344 C 326.179688 146.332031 326.230469 146.410156 326.230469 146.449219 C 326.230469 146.492188 326.425781 146.738281 326.660156 147.011719 C 327.085938 147.503906 327.375 148.117188 327.382812 148.582031 C 327.382812 148.675781 327.464844 148.96875 327.5625 149.222656 C 327.789062 149.820312 328.300781 150.445312 328.832031 150.753906 C 329.050781 150.886719 329.234375 150.996094 329.234375 151 C 329.234375 151.007812 328.90625 151.023438 328.503906 151.03125 C 328.027344 151.039062 327.757812 151.070312 327.695312 151.136719 C 327.652344 151.175781 327.488281 151.222656 327.335938 151.226562 C 327.175781 151.234375 326.976562 151.28125 326.878906 151.339844 C 326.785156 151.394531 326.546875 151.441406 326.347656 151.453125 C 326.152344 151.457031 325.972656 151.488281 325.953125 151.523438 C 325.933594 151.558594 325.800781 151.609375 325.671875 151.632812 C 325.46875 151.675781 325.429688 151.710938 325.433594 151.851562 C 325.433594 151.960938 325.476562 152.023438 325.539062 152.023438 C 325.59375 152.023438 325.644531 152.035156 325.644531 152.054688 C 325.644531 152.109375 325.394531 152.359375 325.1875 152.496094 C 324.761719 152.78125 324.621094 152.957031 324.625 153.199219 C 324.628906 153.367188 324.601562 153.429688 324.519531 153.429688 C 324.414062 153.433594 324.40625 153.300781 324.421875 151.988281 C 324.4375 150.628906 324.410156 150.324219 324.1875 148.71875 C 324.089844 148.011719 324.113281 147.539062 324.34375 146.167969 C 324.445312 145.589844 324.464844 145.117188 324.4375 143.703125 C 324.414062 142.160156 324.386719 141.800781 324.214844 140.769531 C 323.996094 139.484375 323.949219 138.921875 323.867188 136.785156 C 323.800781 135.082031 323.855469 133.949219 324.042969 133.242188 C 324.128906 132.945312 324.199219 132.359375 324.226562 131.886719 C 324.25 131.429688 324.28125 130.824219 324.304688 130.539062 C 324.328125 130.238281 324.304688 129.871094 324.261719 129.671875 C 324.214844 129.480469 324.121094 128.972656 324.058594 128.546875 C 323.925781 127.707031 323.605469 126.921875 323.242188 126.546875 C 323.144531 126.445312 322.964844 126.261719 322.859375 126.152344 C 322.675781 125.960938 322.078125 125.0625 322.074219 124.980469 C 322.074219 124.960938 321.804688 124.578125 321.46875 124.140625 C 320.726562 123.148438 320.476562 123 320.121094 123.367188 C 320.027344 123.464844 319.945312 123.535156 319.9375 123.523438 C 319.589844 123.058594 319.496094 122.941406 319.402344 122.867188 C 319.242188 122.738281 318.859375 122.773438 318.703125 122.933594 Z M 333.804688 155.9375 C 333.9375 156.074219 334.050781 156.207031 334.050781 156.234375 C 334.050781 156.261719 334.136719 156.371094 334.238281 156.480469 C 334.5625 156.839844 335.019531 157.421875 335.425781 158.011719 C 335.648438 158.332031 335.894531 158.667969 335.972656 158.75 C 336.050781 158.824219 336.117188 158.921875 336.117188 158.957031 C 336.117188 159.019531 336.402344 159.316406 337.503906 160.429688 C 337.90625 160.832031 338.242188 161.207031 338.242188 161.246094 C 338.242188 161.296875 338.160156 161.410156 338.066406 161.507812 C 337.863281 161.707031 337.296875 162.578125 337.296875 162.6875 C 337.296875 162.730469 337.273438 162.765625 337.242188 162.765625 C 337.210938 162.765625 337.136719 162.898438 337.070312 163.058594 C 337.003906 163.226562 336.910156 163.453125 336.863281 163.570312 C 336.816406 163.683594 336.738281 163.914062 336.691406 164.082031 C 336.597656 164.441406 336.527344 164.484375 335.917969 164.546875 C 335.660156 164.578125 335.351562 164.640625 335.226562 164.683594 C 335.035156 164.757812 334.964844 164.746094 334.472656 164.492188 C 333.980469 164.234375 333.890625 164.21875 333.414062 164.226562 C 333.128906 164.230469 332.878906 164.207031 332.855469 164.175781 C 332.835938 164.140625 332.695312 164.09375 332.554688 164.070312 C 332.144531 164 332.109375 163.945312 332.226562 163.539062 C 332.285156 163.304688 332.300781 163.074219 332.269531 162.875 C 332.238281 162.695312 332.257812 162.261719 332.320312 161.824219 C 332.433594 160.941406 332.53125 160.566406 332.65625 160.515625 C 332.746094 160.476562 332.898438 160.175781 332.984375 159.863281 C 333.035156 159.652344 333.125 159.582031 333.34375 159.578125 C 333.558594 159.574219 333.902344 159.207031 333.894531 158.984375 C 333.894531 158.886719 333.925781 158.789062 333.960938 158.769531 C 334.042969 158.710938 334.039062 158.039062 333.953125 158.039062 C 333.917969 158.039062 333.871094 157.964844 333.847656 157.867188 C 333.816406 157.769531 333.726562 157.660156 333.628906 157.628906 C 333.464844 157.570312 333.460938 157.550781 333.414062 156.613281 C 333.390625 156.085938 333.339844 155.558594 333.308594 155.449219 L 333.253906 155.242188 L 333.414062 155.46875 C 333.492188 155.597656 333.667969 155.808594 333.804688 155.9375 Z M 333.804688 155.9375 " fill-opacity="1" fill-rule="nonzero"/></g><g fill="#ffffff" fill-opacity="1"><g transform="translate(121.890743, 75.841331)"><g><path d="M -6.390625 -50.5 L 0.078125 -52.96875 C 2.804688 -54.007812 5.140625 -54.09375 7.078125 -53.21875 C 9.023438 -52.351562 10.519531 -50.550781 11.5625 -47.8125 L 13.890625 -41.6875 C 14.128906 -41.082031 13.945312 -40.660156 13.34375 -40.421875 L 7.328125 -38.140625 C 6.710938 -37.898438 6.285156 -38.082031 6.046875 -38.6875 L 4.328125 -43.203125 C 3.742188 -44.742188 2.675781 -45.222656 1.125 -44.640625 L -1.640625 -43.578125 C -3.179688 -42.992188 -3.660156 -41.929688 -3.078125 -40.390625 L -0.03125 -32.40625 L 15.4375 -33.140625 C 16.59375 -33.097656 17.363281 -32.578125 17.75 -31.578125 L 22.828125 -18.234375 C 23.859375 -15.535156 23.941406 -13.203125 23.078125 -11.234375 C 22.210938 -9.273438 20.414062 -7.773438 17.6875 -6.734375 L 11.21875 -4.265625 C 8.519531 -3.242188 6.1875 -3.171875 4.21875 -4.046875 C 2.25 -4.929688 0.75 -6.722656 -0.28125 -9.421875 L -2.59375 -15.484375 C -2.820312 -16.097656 -2.628906 -16.523438 -2.015625 -16.765625 L 4 -19.046875 C 4.613281 -19.285156 5.035156 -19.097656 5.265625 -18.484375 L 6.96875 -14.03125 C 7.550781 -12.488281 8.613281 -12.007812 10.15625 -12.59375 L 12.921875 -13.65625 C 14.472656 -14.238281 14.957031 -15.300781 14.375 -16.84375 L 11.453125 -24.53125 L -3.96875 -23.84375 C -5.144531 -23.78125 -5.9375 -24.285156 -6.34375 -25.359375 L -11.546875 -39 C -12.585938 -41.738281 -12.660156 -44.082031 -11.765625 -46.03125 C -10.878906 -47.988281 -9.085938 -49.476562 -6.390625 -50.5 Z M -6.390625 -50.5 "/></g></g></g><g fill="#ffffff" fill-opacity="1"><g transform="translate(146.634362, 65.993749)"><g><path d="M 2.875 -1.515625 L -5.59375 -48.25 C -5.707031 -48.894531 -5.441406 -49.28125 -4.796875 -49.40625 L 9.8125 -52.046875 C 12.6875 -52.566406 14.992188 -52.21875 16.734375 -51 C 18.484375 -49.789062 19.617188 -47.742188 20.140625 -44.859375 L 22.828125 -30.03125 C 23.347656 -27.1875 23.003906 -24.878906 21.796875 -23.109375 C 20.585938 -21.347656 18.546875 -20.207031 15.671875 -19.6875 L 8.359375 -18.359375 L 11.140625 -3.015625 C 11.253906 -2.367188 10.988281 -1.988281 10.34375 -1.875 L 4.015625 -0.734375 C 3.367188 -0.609375 2.988281 -0.867188 2.875 -1.515625 Z M 6.90625 -26.390625 L 12.265625 -27.359375 C 13.890625 -27.660156 14.550781 -28.625 14.25 -30.25 L 12.1875 -41.6875 C 11.894531 -43.3125 10.9375 -43.972656 9.3125 -43.671875 L 3.953125 -42.703125 Z M 6.90625 -26.390625 "/></g></g></g><g fill="#ffffff" fill-opacity="1"><g transform="translate(172.765033, 60.854676)"><g><path d="M 3.140625 -8.890625 L 3.3125 -40.546875 C 3.320312 -43.472656 4.09375 -45.679688 5.625 -47.171875 C 7.164062 -48.671875 9.378906 -49.414062 12.265625 -49.40625 L 19.1875 -49.375 C 22.113281 -49.351562 24.320312 -48.582031 25.8125 -47.0625 C 27.3125 -45.550781 28.054688 -43.332031 28.046875 -40.40625 L 27.875 -8.75 C 27.863281 -5.863281 27.097656 -3.660156 25.578125 -2.140625 C 24.066406 -0.628906 21.847656 0.113281 18.921875 0.09375 L 12 0.0625 C 9.113281 0.0507812 6.910156 -0.71875 5.390625 -2.25 C 3.878906 -3.789062 3.128906 -6.003906 3.140625 -8.890625 Z M 13.84375 -7.90625 L 17.421875 -7.890625 C 19.078125 -7.878906 19.910156 -8.695312 19.921875 -10.34375 L 20.0625 -38.90625 C 20.070312 -40.5625 19.25 -41.394531 17.59375 -41.40625 L 14.015625 -41.421875 C 12.359375 -41.429688 11.523438 -40.609375 11.515625 -38.953125 L 11.375 -10.390625 C 11.363281 -8.742188 12.1875 -7.914062 13.84375 -7.90625 Z M 13.84375 -7.90625 "/></g></g></g><g fill="#ffffff" fill-opacity="1"><g transform="translate(199.353553, 60.558353)"><g><path d="M 35.71875 -34.375 L 32.84375 -19.578125 C 32.0625 -15.523438 30.066406 -13.140625 26.859375 -12.421875 L 27.96875 4.296875 C 28.019531 5.066406 27.660156 5.375 26.890625 5.21875 L 20.578125 4 C 20.003906 3.882812 19.710938 3.535156 19.703125 2.953125 L 18.625 -13.28125 L 14.4375 -14.09375 L 11.46875 1.21875 C 11.34375 1.863281 10.960938 2.125 10.328125 2 L 4 0.78125 C 3.351562 0.65625 3.09375 0.269531 3.21875 -0.375 L 12.28125 -47 C 12.40625 -47.644531 12.789062 -47.90625 13.4375 -47.78125 L 28.6875 -44.828125 C 31.5625 -44.265625 33.59375 -43.097656 34.78125 -41.328125 C 35.96875 -39.566406 36.28125 -37.25 35.71875 -34.375 Z M 16 -22.09375 L 22.015625 -20.921875 C 23.628906 -20.609375 24.59375 -21.265625 24.90625 -22.890625 L 27.125 -34.296875 C 27.4375 -35.910156 26.785156 -36.875 25.171875 -37.1875 L 19.15625 -38.359375 Z M 16 -22.09375 "/></g></g></g><g fill="#ffffff" fill-opacity="1"><g transform="translate(226.308344, 65.5596)"><g><path d="M 20.59375 -45.0625 L 41.796875 -36.8125 C 42.410156 -36.570312 42.601562 -36.148438 42.375 -35.546875 L 40.125 -29.78125 C 39.882812 -29.164062 39.457031 -28.976562 38.84375 -29.21875 L 32.15625 -31.8125 L 17.53125 5.765625 C 17.289062 6.378906 16.863281 6.566406 16.25 6.328125 L 10.265625 4 C 9.640625 3.757812 9.445312 3.332031 9.6875 2.71875 L 24.3125 -34.859375 L 17.640625 -37.46875 C 17.023438 -37.707031 16.835938 -38.132812 17.078125 -38.75 L 19.328125 -44.515625 C 19.554688 -45.117188 19.976562 -45.300781 20.59375 -45.0625 Z M 20.59375 -45.0625 "/></g></g></g><g fill="#ffffff" fill-opacity="1"><g transform="translate(127.313692, 350.980228)"><g><path d="M 2.96875 -0.125 L 14.578125 -42.125 C 14.742188 -42.71875 15.117188 -42.929688 15.703125 -42.765625 L 28.828125 -39.140625 C 31.421875 -38.429688 33.195312 -37.222656 34.15625 -35.515625 C 35.113281 -33.816406 35.234375 -31.675781 34.515625 -29.09375 L 30.828125 -15.734375 C 30.128906 -13.179688 28.925781 -11.414062 27.21875 -10.4375 C 25.519531 -9.457031 23.375 -9.320312 20.78125 -10.03125 L 14.234375 -11.84375 L 10.421875 1.9375 C 10.265625 2.519531 9.890625 2.726562 9.296875 2.5625 L 3.609375 1 C 3.023438 0.832031 2.8125 0.457031 2.96875 -0.125 Z M 16.234375 -19.078125 L 21.03125 -17.75 C 22.488281 -17.351562 23.414062 -17.878906 23.8125 -19.328125 L 26.65625 -29.625 C 27.0625 -31.070312 26.535156 -31.992188 25.078125 -32.390625 L 20.28125 -33.71875 Z M 16.234375 -19.078125 "/></g></g></g><g fill="#ffffff" fill-opacity="1"><g transform="translate(158.48715, 359.217481)"><g><path d="M 3.515625 -7.90625 L 5.984375 -36.859375 C 6.210938 -39.523438 7.078125 -41.488281 8.578125 -42.75 C 10.085938 -44.007812 12.164062 -44.523438 14.8125 -44.296875 L 21.140625 -43.765625 C 23.816406 -43.535156 25.785156 -42.671875 27.046875 -41.171875 C 28.304688 -39.671875 28.820312 -37.585938 28.59375 -34.921875 L 26.125 -5.96875 C 25.90625 -3.332031 25.046875 -1.375 23.546875 -0.09375 C 22.054688 1.175781 19.972656 1.695312 17.296875 1.46875 L 10.96875 0.9375 C 8.320312 0.707031 6.363281 -0.160156 5.09375 -1.671875 C 3.820312 -3.191406 3.296875 -5.269531 3.515625 -7.90625 Z M 13.234375 -6.21875 L 16.515625 -5.9375 C 18.023438 -5.8125 18.84375 -6.503906 18.96875 -8.015625 L 21.1875 -34.140625 C 21.320312 -35.640625 20.632812 -36.453125 19.125 -36.578125 L 15.84375 -36.859375 C 14.34375 -36.992188 13.523438 -36.3125 13.390625 -34.8125 L 11.171875 -8.6875 C 11.046875 -7.175781 11.734375 -6.351562 13.234375 -6.21875 Z M 13.234375 -6.21875 "/></g></g></g><g fill="#ffffff" fill-opacity="1"><g transform="translate(190.642819, 361.59428)"><g><path d="M 6.4375 -46.28125 L 12.75 -46.921875 C 15.425781 -47.179688 17.519531 -46.691406 19.03125 -45.453125 C 20.539062 -44.210938 21.429688 -42.257812 21.703125 -39.59375 L 22.296875 -33.609375 C 22.359375 -32.992188 22.085938 -32.65625 21.484375 -32.59375 L 15.625 -32 C 15.007812 -31.9375 14.671875 -32.210938 14.609375 -32.828125 L 14.171875 -37.234375 C 14.023438 -38.734375 13.203125 -39.410156 11.703125 -39.265625 L 9 -39 C 7.5 -38.84375 6.820312 -38.015625 6.96875 -36.515625 L 7.75 -28.71875 L 21.609375 -25.65625 C 22.628906 -25.34375 23.1875 -24.695312 23.28125 -23.71875 L 24.59375 -10.671875 C 24.851562 -8.046875 24.363281 -5.960938 23.125 -4.421875 C 21.894531 -2.890625 19.941406 -1.992188 17.265625 -1.734375 L 10.953125 -1.09375 C 8.316406 -0.832031 6.234375 -1.328125 4.703125 -2.578125 C 3.171875 -3.835938 2.273438 -5.78125 2.015625 -8.40625 L 1.421875 -14.34375 C 1.359375 -14.9375 1.628906 -15.265625 2.234375 -15.328125 L 8.09375 -15.90625 C 8.707031 -15.96875 9.046875 -15.703125 9.109375 -15.109375 L 9.546875 -10.765625 C 9.691406 -9.253906 10.515625 -8.578125 12.015625 -8.734375 L 14.71875 -9 C 16.21875 -9.144531 16.894531 -9.972656 16.75 -11.484375 L 16 -18.984375 L 2.203125 -22.0625 C 1.140625 -22.300781 0.554688 -22.941406 0.453125 -23.984375 L -0.875 -37.328125 C -1.144531 -39.992188 -0.65625 -42.085938 0.59375 -43.609375 C 1.851562 -45.128906 3.800781 -46.019531 6.4375 -46.28125 Z M 6.4375 -46.28125 "/></g></g></g><g fill="#ffffff" fill-opacity="1"><g transform="translate(222.514476, 357.977662)"><g><path d="M -9.890625 -44.390625 L 10.203125 -50.09375 C 10.785156 -50.257812 11.160156 -50.050781 11.328125 -49.46875 L 12.875 -44 C 13.039062 -43.425781 12.832031 -43.054688 12.25 -42.890625 L 5.90625 -41.09375 L 16.015625 -5.5 C 16.179688 -4.914062 15.972656 -4.539062 15.390625 -4.375 L 9.703125 -2.765625 C 9.128906 -2.597656 8.757812 -2.804688 8.59375 -3.390625 L -1.515625 -38.984375 L -7.84375 -37.1875 C -8.425781 -37.019531 -8.800781 -37.222656 -8.96875 -37.796875 L -10.515625 -43.265625 C -10.679688 -43.847656 -10.472656 -44.222656 -9.890625 -44.390625 Z M -9.890625 -44.390625 "/></g></g></g><g clip-path="url(#fe32d2ae59)"><path fill="#ffffff" d="M 53.695312 98.59375 C 53.792969 98.625 53.980469 98.65625 54.117188 98.664062 C 54.382812 98.679688 54.554688 98.742188 55.492188 99.164062 C 56.117188 99.445312 57.0625 100.089844 57.511719 100.519531 C 58.199219 101.1875 58.851562 102.441406 59.140625 103.660156 C 59.484375 105.097656 59.292969 107.160156 58.726562 108.207031 C 58.640625 108.355469 58.574219 108.515625 58.574219 108.558594 C 58.574219 108.597656 58.492188 108.734375 58.394531 108.859375 C 58.292969 108.980469 58.214844 109.113281 58.214844 109.148438 C 58.214844 109.257812 56.855469 110.550781 56.511719 110.78125 C 56.039062 111.082031 55.179688 111.511719 54.921875 111.5625 C 54.796875 111.582031 54.683594 111.632812 54.664062 111.667969 C 54.632812 111.703125 54.515625 111.726562 54.390625 111.726562 C 54.273438 111.722656 54.125 111.761719 54.082031 111.804688 C 53.957031 111.925781 51.578125 111.878906 51.15625 111.746094 C 49.664062 111.28125 49.203125 111.070312 48.554688 110.582031 C 47.964844 110.140625 47.191406 109.269531 46.910156 108.746094 C 46.855469 108.644531 46.742188 108.464844 46.65625 108.335938 C 46.574219 108.21875 46.507812 108.097656 46.507812 108.070312 C 46.507812 108.050781 46.429688 107.855469 46.335938 107.636719 C 46.234375 107.425781 46.136719 107.078125 46.113281 106.855469 C 46.082031 106.640625 46.035156 106.265625 45.992188 106.011719 C 45.839844 105.113281 46.160156 103.019531 46.507812 102.53125 C 46.566406 102.449219 46.617188 102.332031 46.617188 102.269531 C 46.617188 102.207031 46.683594 102.105469 46.753906 102.042969 C 46.832031 101.976562 46.917969 101.832031 46.941406 101.722656 C 46.96875 101.609375 47.019531 101.523438 47.054688 101.523438 C 47.089844 101.523438 47.152344 101.449219 47.191406 101.359375 C 47.34375 100.964844 48.339844 99.957031 48.789062 99.730469 C 48.921875 99.671875 49.027344 99.589844 49.027344 99.554688 C 49.03125 99.492188 49.722656 99.144531 49.855469 99.148438 C 49.898438 99.148438 49.9375 99.121094 49.941406 99.085938 C 49.941406 99.050781 50.039062 98.996094 50.164062 98.980469 C 50.289062 98.953125 50.4375 98.90625 50.5 98.882812 C 50.738281 98.769531 51.183594 98.660156 51.582031 98.605469 C 52.191406 98.53125 53.496094 98.523438 53.695312 98.59375 Z M 53.695312 98.59375 " fill-opacity="1" fill-rule="nonzero"/></g><g clip-path="url(#29692639b6)"><path fill="#ffffff" d="M 56.285156 122.933594 C 56.46875 123.125 56.453125 123.328125 56.207031 123.765625 C 55.648438 124.789062 55.324219 125.429688 55.363281 125.464844 C 55.410156 125.519531 55.40625 125.535156 55.699219 125.074219 C 55.925781 124.71875 56.019531 124.546875 56.273438 124.011719 C 56.417969 123.695312 56.628906 123.496094 56.816406 123.5 C 57.003906 123.503906 57.378906 123.859375 57.375 124.03125 C 57.375 124.128906 56.738281 125.429688 56.515625 125.785156 C 56.480469 125.839844 56.359375 126.074219 56.25 126.300781 C 56.136719 126.527344 55.921875 126.882812 55.777344 127.097656 C 55.476562 127.519531 55.457031 127.605469 55.597656 127.753906 C 55.753906 127.90625 55.824219 127.882812 56.207031 127.515625 C 56.398438 127.324219 56.609375 127.175781 56.671875 127.175781 C 56.796875 127.179688 57.449219 126.726562 57.769531 126.417969 C 58 126.195312 58.300781 126.171875 58.464844 126.363281 C 58.648438 126.566406 58.597656 126.867188 58.34375 127.160156 C 58.089844 127.453125 56.988281 128.363281 56.890625 128.359375 C 56.710938 128.355469 56.242188 129 55.929688 129.6875 C 55.734375 130.101562 55.511719 130.535156 55.417969 130.648438 C 55.324219 130.765625 55.226562 130.929688 55.203125 131.015625 C 55.171875 131.097656 54.945312 131.363281 54.691406 131.609375 L 54.230469 132.058594 L 54.242188 133.710938 C 54.246094 134.609375 54.285156 135.507812 54.316406 135.703125 C 54.347656 135.890625 54.394531 136.3125 54.421875 136.640625 C 54.457031 136.96875 54.523438 137.449219 54.582031 137.71875 C 54.640625 137.984375 54.710938 138.347656 54.742188 138.519531 C 54.773438 138.695312 54.839844 139.070312 54.898438 139.355469 C 54.949219 139.640625 55.015625 140.054688 55.054688 140.261719 C 55.121094 140.726562 55.222656 141.292969 55.316406 141.757812 C 55.363281 141.976562 55.375 142.773438 55.347656 143.875 C 55.320312 144.855469 55.324219 145.828125 55.355469 146.042969 C 55.390625 146.277344 55.382812 146.695312 55.339844 147.082031 C 55.292969 147.5 55.289062 147.929688 55.324219 148.253906 C 55.355469 148.539062 55.398438 148.894531 55.414062 149.046875 C 55.433594 149.203125 55.46875 149.390625 55.503906 149.464844 C 55.601562 149.695312 55.824219 150.875 56.007812 152.148438 C 56.203125 153.476562 56.066406 154.863281 55.578125 156.582031 C 55.523438 156.769531 55.535156 156.921875 55.640625 157.242188 C 55.710938 157.472656 55.796875 157.8125 55.832031 158.007812 C 55.863281 158.195312 55.933594 158.558594 55.984375 158.808594 C 56.042969 159.0625 56.117188 159.542969 56.144531 159.890625 C 56.21875 160.648438 56.121094 162.914062 56.003906 163.253906 C 55.8125 163.777344 55.605469 164.257812 55.496094 164.421875 C 55.433594 164.519531 55.359375 164.640625 55.339844 164.695312 C 55.316406 164.75 55.128906 165.0625 54.929688 165.375 C 54.542969 165.984375 54.515625 166.0625 54.636719 166.1875 C 54.683594 166.238281 54.703125 166.792969 54.679688 167.863281 C 54.660156 168.890625 54.621094 169.507812 54.570312 169.597656 C 54.527344 169.671875 54.492188 169.832031 54.488281 169.941406 C 54.488281 170.050781 54.414062 170.21875 54.320312 170.3125 C 54.238281 170.402344 54.113281 170.613281 54.054688 170.785156 C 54.003906 170.953125 53.933594 171.125 53.898438 171.164062 C 53.867188 171.207031 53.730469 171.441406 53.601562 171.679688 C 53.464844 171.921875 53.285156 172.234375 53.199219 172.386719 C 53.113281 172.53125 52.992188 172.792969 52.925781 172.972656 C 52.867188 173.144531 52.773438 173.335938 52.714844 173.398438 C 52.660156 173.453125 52.617188 173.535156 52.613281 173.578125 C 52.613281 173.644531 52.441406 174.003906 52.136719 174.582031 C 52.082031 174.691406 52.035156 174.816406 52.035156 174.871094 C 52.035156 174.917969 51.984375 175.050781 51.925781 175.152344 C 51.867188 175.261719 51.816406 175.421875 51.816406 175.503906 C 51.8125 175.589844 51.777344 175.675781 51.742188 175.699219 C 51.699219 175.71875 51.671875 175.8125 51.667969 175.90625 C 51.667969 175.996094 51.621094 176.175781 51.5625 176.296875 C 51.410156 176.640625 51.300781 177 51.296875 177.152344 C 51.296875 177.230469 51.253906 177.347656 51.195312 177.421875 C 51.144531 177.496094 51.078125 177.671875 51.054688 177.800781 C 50.984375 178.230469 50.859375 178.597656 50.792969 178.617188 C 50.75 178.628906 50.710938 178.746094 50.710938 178.871094 C 50.707031 179.003906 50.671875 179.125 50.628906 179.152344 C 50.585938 179.179688 50.570312 179.269531 50.597656 179.382812 C 50.621094 179.480469 50.660156 180.113281 50.671875 180.777344 C 50.71875 182.042969 50.78125 182.722656 50.898438 183.140625 C 50.9375 183.273438 50.96875 183.53125 50.964844 183.710938 C 50.957031 184.039062 51.09375 184.914062 51.21875 185.339844 C 51.25 185.460938 51.273438 185.648438 51.273438 185.757812 C 51.269531 185.871094 51.300781 186.070312 51.339844 186.203125 C 51.371094 186.335938 51.429688 186.683594 51.457031 186.96875 C 51.480469 187.253906 51.554688 187.804688 51.609375 188.1875 C 51.664062 188.570312 51.726562 189.257812 51.746094 189.71875 C 51.757812 190.175781 51.796875 190.59375 51.824219 190.640625 C 51.859375 190.691406 51.898438 191.066406 51.925781 191.476562 C 51.996094 192.53125 52.085938 193.289062 52.179688 193.597656 C 52.277344 193.933594 52.167969 194.132812 51.574219 194.695312 L 51.164062 195.089844 L 51.21875 195.558594 C 51.324219 196.425781 51.386719 198.65625 51.339844 199.390625 C 51.246094 200.597656 51.144531 201.253906 50.890625 202.226562 C 50.726562 202.847656 50.648438 203.1875 50.585938 203.503906 C 50.457031 204.246094 50.222656 205.261719 49.976562 206.132812 C 49.929688 206.28125 49.863281 206.871094 49.8125 207.445312 C 49.765625 208.015625 49.699219 208.652344 49.652344 208.859375 C 49.613281 209.066406 49.558594 210.09375 49.539062 211.148438 C 49.503906 212.671875 49.476562 213.097656 49.394531 213.234375 C 49.339844 213.328125 49.292969 213.488281 49.285156 213.59375 C 49.28125 213.695312 49.246094 213.800781 49.210938 213.820312 C 49.167969 213.839844 49.140625 213.921875 49.136719 213.992188 C 49.136719 214.0625 49.085938 214.164062 49.03125 214.226562 C 48.972656 214.28125 48.921875 214.355469 48.921875 214.398438 C 48.921875 214.433594 48.84375 214.609375 48.742188 214.789062 C 48.640625 214.96875 48.5625 215.152344 48.558594 215.195312 C 48.558594 215.246094 48.507812 215.320312 48.453125 215.367188 C 48.394531 215.414062 48.34375 215.550781 48.34375 215.671875 C 48.335938 216.140625 47.945312 216.605469 47.554688 216.597656 C 47.480469 216.597656 47.421875 216.625 47.421875 216.667969 C 47.421875 216.699219 47.300781 216.78125 47.160156 216.847656 C 46.769531 217.023438 46.628906 217.183594 46.679688 217.402344 C 46.808594 217.980469 47.238281 220.488281 47.335938 221.246094 C 47.367188 221.453125 47.445312 222.003906 47.519531 222.464844 C 47.632812 223.171875 47.644531 223.589844 47.617188 225.277344 C 47.59375 226.523438 47.550781 227.445312 47.488281 227.773438 C 47.371094 228.4375 47.277344 229.074219 47.175781 230 C 47.125 230.410156 47.082031 230.761719 47.078125 230.796875 C 47.070312 230.824219 47.082031 230.90625 47.113281 230.976562 C 47.167969 231.105469 47.140625 231.449219 46.933594 233.277344 C 46.757812 234.855469 46.644531 236.269531 46.550781 238.246094 L 46.472656 239.882812 L 46.636719 240.121094 C 46.859375 240.453125 46.953125 240.515625 47.382812 240.609375 C 48.164062 240.789062 48.414062 241.175781 48.394531 242.183594 C 48.386719 242.488281 48.410156 242.710938 48.453125 242.710938 C 48.570312 242.714844 49.046875 243.257812 49.171875 243.53125 C 49.332031 243.886719 49.300781 245.128906 49.121094 245.535156 C 48.84375 246.140625 48.5625 246.664062 48.4375 246.796875 C 48.367188 246.875 48.300781 246.957031 48.300781 246.976562 C 48.300781 246.996094 48.265625 247.050781 48.230469 247.101562 C 48.066406 247.277344 47.644531 247.941406 47.472656 248.285156 C 47.277344 248.683594 47.242188 248.976562 47.308594 249.851562 C 47.34375 250.253906 47.324219 250.460938 47.238281 250.71875 C 47.171875 250.898438 47.082031 251.179688 47.03125 251.34375 C 46.980469 251.503906 46.902344 251.667969 46.84375 251.710938 C 46.792969 251.75 46.75 251.847656 46.75 251.910156 C 46.746094 252.0625 45.957031 252.832031 45.660156 252.976562 C 45.550781 253.03125 45.394531 253.140625 45.316406 253.207031 C 45.238281 253.273438 45.105469 253.355469 45.027344 253.375 C 44.945312 253.402344 44.867188 253.433594 44.847656 253.460938 C 44.761719 253.558594 44.335938 253.738281 44.183594 253.734375 C 44.097656 253.734375 43.988281 253.777344 43.9375 253.832031 C 43.886719 253.886719 43.78125 253.933594 43.699219 253.933594 C 43.617188 253.929688 43.511719 253.964844 43.46875 254.003906 C 43.363281 254.105469 40.960938 254.0625 40.859375 253.957031 C 40.820312 253.914062 40.6875 253.875 40.5625 253.875 C 40.445312 253.871094 40.308594 253.820312 40.261719 253.761719 C 40.214844 253.707031 40.125 253.65625 40.0625 253.65625 C 39.847656 253.652344 39.507812 253.234375 39.511719 252.980469 L 39.515625 252.75 L 38.800781 252.75 C 38.191406 252.753906 38.066406 252.730469 37.910156 252.609375 C 37.804688 252.53125 37.71875 252.4375 37.71875 252.410156 C 37.71875 252.375 37.671875 252.234375 37.613281 252.101562 C 37.511719 251.894531 37.507812 251.78125 37.597656 251.191406 C 37.753906 250.121094 37.777344 250.003906 37.839844 249.960938 C 37.875 249.941406 37.90625 249.875 37.90625 249.8125 C 37.90625 249.75 37.953125 249.617188 38.007812 249.523438 C 38.460938 248.71875 38.503906 248.621094 38.429688 248.542969 C 38.308594 248.417969 38.339844 248.222656 38.53125 247.949219 C 38.632812 247.8125 38.710938 247.640625 38.714844 247.570312 C 38.714844 247.417969 38.964844 247.046875 39.15625 246.921875 C 39.246094 246.859375 39.285156 246.742188 39.289062 246.527344 C 39.292969 246.359375 39.320312 246.203125 39.363281 246.179688 C 39.398438 246.160156 39.441406 245.855469 39.445312 245.515625 C 39.453125 245.09375 39.492188 244.84375 39.558594 244.742188 C 39.714844 244.515625 39.75 243.511719 39.597656 243.300781 C 39.539062 243.207031 39.492188 243.074219 39.492188 243.003906 C 39.496094 242.886719 39.480469 242.886719 39.339844 242.980469 C 39.25 243.042969 39.042969 243.085938 38.867188 243.082031 C 38.457031 243.074219 38.246094 242.871094 38.253906 242.503906 C 38.257812 242.273438 38.28125 242.238281 38.515625 242.175781 C 38.664062 242.128906 38.8125 242.070312 38.847656 242.035156 C 38.921875 241.972656 38.59375 241.449219 38.441406 241.382812 C 38.386719 241.359375 38.347656 241.285156 38.347656 241.214844 C 38.351562 241.136719 38.253906 241.039062 38.097656 240.953125 C 37.945312 240.878906 37.878906 240.808594 37.925781 240.796875 C 37.976562 240.777344 38.070312 240.8125 38.140625 240.875 C 38.28125 241.011719 38.917969 241.175781 39.070312 241.125 C 39.199219 241.078125 39.230469 240.871094 39.113281 240.867188 C 38.992188 240.867188 38.851562 240.648438 38.847656 240.472656 C 38.851562 240.3125 39.21875 239.898438 39.464844 239.769531 C 39.550781 239.730469 39.730469 239.699219 39.863281 239.703125 L 40.113281 239.707031 L 40.121094 239.160156 C 40.128906 238.855469 40.105469 238.589844 40.070312 238.566406 C 40.035156 238.546875 39.992188 238.359375 39.96875 238.144531 C 39.953125 237.933594 39.898438 237.746094 39.867188 237.722656 C 39.832031 237.695312 39.804688 237.5625 39.808594 237.417969 C 39.8125 237.277344 39.78125 237.125 39.738281 237.082031 C 39.699219 237.039062 39.636719 236.875 39.605469 236.71875 C 39.574219 236.558594 39.523438 236.316406 39.5 236.167969 C 39.46875 236.03125 39.410156 235.839844 39.367188 235.757812 C 39.320312 235.671875 39.289062 235.527344 39.292969 235.4375 C 39.292969 235.339844 39.246094 235.226562 39.191406 235.179688 C 39.136719 235.128906 39.089844 234.980469 39.09375 234.855469 C 39.097656 234.726562 39.070312 234.566406 39.039062 234.496094 C 38.972656 234.355469 38.90625 234.144531 38.597656 233.15625 C 38.476562 232.75 38.351562 232.367188 38.308594 232.300781 C 38.277344 232.230469 38.242188 232.128906 38.246094 232.070312 C 38.246094 232.015625 38.21875 231.910156 38.1875 231.839844 C 37.914062 231.253906 37.785156 230.800781 37.789062 230.453125 C 37.792969 230.292969 37.691406 229.777344 37.5625 229.304688 C 37.433594 228.828125 37.269531 228.207031 37.207031 227.921875 C 37.136719 227.636719 37.050781 227.300781 37.019531 227.191406 C 36.988281 227.070312 36.941406 226.847656 36.917969 226.683594 C 36.894531 226.523438 36.847656 226.367188 36.820312 226.347656 C 36.785156 226.324219 36.761719 226.214844 36.761719 226.101562 C 36.765625 225.984375 36.738281 225.832031 36.699219 225.761719 C 36.667969 225.691406 36.609375 225.433594 36.570312 225.191406 C 36.535156 224.945312 36.46875 224.488281 36.417969 224.160156 C 36.367188 223.832031 36.296875 223.207031 36.269531 222.769531 C 36.214844 221.996094 36.105469 221.28125 36.011719 221.132812 C 35.992188 221.089844 35.953125 220.945312 35.925781 220.796875 C 35.902344 220.660156 35.855469 220.539062 35.820312 220.539062 C 35.785156 220.539062 35.757812 220.449219 35.761719 220.335938 C 35.765625 220.21875 35.738281 220.113281 35.703125 220.085938 C 35.667969 220.066406 35.617188 219.945312 35.589844 219.828125 C 35.527344 219.492188 35.371094 219.28125 35.191406 219.277344 C 34.914062 219.273438 34.816406 219.035156 34.695312 218.054688 C 34.585938 217.183594 34.511719 216.726562 34.453125 216.59375 C 34.351562 216.363281 34.191406 215.386719 34.195312 215.0625 C 34.199219 214.894531 34.167969 214.734375 34.132812 214.710938 C 34.09375 214.691406 34.070312 214.496094 34.074219 214.296875 C 34.078125 214.085938 34.039062 213.78125 33.988281 213.621094 C 33.9375 213.453125 33.878906 213.117188 33.863281 212.867188 C 33.8125 211.984375 33.65625 210.601562 33.570312 210.121094 C 33.4375 209.425781 33.183594 208.175781 33.023438 207.472656 C 32.976562 207.277344 32.921875 207 32.894531 206.847656 C 32.871094 206.695312 32.792969 206.378906 32.734375 206.148438 C 32.554688 205.472656 32.425781 204.847656 32.226562 203.640625 C 32.066406 202.667969 32.234375 199.617188 32.542969 198.027344 C 32.613281 197.644531 32.699219 197.160156 32.738281 196.953125 C 32.769531 196.746094 32.867188 196.261719 32.960938 195.882812 C 33.050781 195.46875 33.121094 194.933594 33.128906 194.554688 C 33.136719 194.207031 33.179688 193.832031 33.230469 193.722656 C 33.273438 193.617188 33.34375 193.121094 33.382812 192.628906 C 33.417969 192.128906 33.507812 191.480469 33.578125 191.175781 C 33.644531 190.871094 33.726562 190.484375 33.757812 190.3125 C 33.820312 190.035156 33.871094 189.863281 34.0625 189.378906 C 34.097656 189.304688 34.179688 189.082031 34.246094 188.898438 C 34.375 188.53125 34.527344 188.179688 34.664062 187.90625 C 34.730469 187.78125 34.773438 186.339844 34.839844 182.113281 C 34.917969 176.757812 34.957031 175.855469 35.175781 174.167969 C 35.21875 173.882812 35.285156 173.523438 35.332031 173.371094 C 35.375 173.21875 35.417969 172.929688 35.417969 172.730469 C 35.421875 172.535156 35.453125 172.367188 35.496094 172.371094 C 35.53125 172.371094 35.566406 172.308594 35.566406 172.230469 C 35.570312 172.148438 35.621094 171.996094 35.679688 171.894531 C 35.734375 171.785156 35.804688 171.570312 35.832031 171.410156 C 35.878906 171.132812 35.875 171.113281 35.453125 170.648438 C 35.214844 170.386719 34.921875 170.027344 34.816406 169.859375 C 34.699219 169.683594 34.484375 169.367188 34.324219 169.140625 C 34.167969 168.921875 34.039062 168.710938 34.039062 168.675781 C 34.039062 168.636719 33.972656 168.515625 33.886719 168.402344 C 33.710938 168.164062 33.582031 167.96875 33.527344 167.820312 C 33.441406 167.589844 33.277344 167.199219 33.070312 166.734375 C 32.949219 166.464844 32.804688 166.042969 32.742188 165.792969 C 32.683594 165.542969 32.601562 165.199219 32.554688 165.027344 C 32.503906 164.851562 32.417969 164.460938 32.355469 164.15625 C 32.292969 163.847656 32.179688 163.289062 32.09375 162.914062 C 32.011719 162.539062 31.945312 162.023438 31.949219 161.765625 C 31.96875 160.796875 32.660156 159.058594 33.335938 158.273438 C 33.5 158.082031 33.761719 157.777344 33.925781 157.589844 C 34.585938 156.820312 36.046875 155.5 37.152344 154.667969 C 37.484375 154.425781 37.800781 154.179688 37.863281 154.132812 C 38.054688 153.984375 38.875 153.445312 38.980469 153.398438 C 39.085938 153.351562 39.769531 152.878906 40.507812 152.34375 C 41.019531 151.964844 41.308594 151.707031 42.46875 150.605469 C 43.332031 149.78125 43.402344 149.6875 43.554688 149.265625 C 43.644531 149.019531 43.71875 148.699219 43.722656 148.5625 C 43.726562 148.429688 43.773438 148.117188 43.832031 147.875 C 43.886719 147.636719 43.976562 147.15625 44.035156 146.820312 C 44.191406 145.828125 44.242188 145.675781 44.582031 145.378906 C 44.75 145.222656 44.898438 145.039062 44.914062 144.960938 C 44.929688 144.886719 45.148438 144.695312 45.4375 144.511719 C 45.710938 144.339844 46.035156 144.066406 46.15625 143.902344 C 46.386719 143.609375 46.820312 143.367188 47.117188 143.371094 C 47.203125 143.375 47.367188 143.328125 47.472656 143.273438 C 47.585938 143.222656 47.734375 143.175781 47.796875 143.175781 C 47.859375 143.179688 47.925781 143.152344 47.949219 143.117188 C 47.96875 143.082031 48.109375 143.042969 48.25 143.027344 C 48.394531 143.015625 48.714844 142.964844 48.964844 142.929688 C 49.578125 142.828125 49.730469 142.875 49.722656 143.171875 C 49.722656 143.351562 49.664062 143.457031 49.5 143.585938 C 49.277344 143.769531 49.257812 143.96875 49.464844 143.972656 C 49.542969 143.972656 49.570312 144.050781 49.566406 144.253906 C 49.558594 144.597656 49.46875 144.640625 48.460938 144.746094 C 47.734375 144.820312 47.707031 144.828125 47.261719 145.25 C 46.996094 145.5 46.625 146.027344 46.578125 146.214844 C 46.546875 146.324219 46.492188 146.414062 46.449219 146.414062 C 46.394531 146.414062 46.402344 146.441406 46.453125 146.496094 C 46.503906 146.546875 46.535156 146.636719 46.535156 146.699219 C 46.53125 146.769531 46.585938 146.875 46.648438 146.945312 C 46.757812 147.058594 46.777344 147.050781 46.960938 146.832031 C 47.070312 146.710938 47.160156 146.578125 47.160156 146.546875 C 47.164062 146.378906 47.488281 145.871094 47.785156 145.558594 C 48.28125 145.046875 48.699219 145 48.996094 145.429688 C 49.121094 145.617188 49.128906 145.671875 49.054688 145.90625 C 49.011719 146.058594 48.921875 146.226562 48.867188 146.277344 C 48.8125 146.332031 48.761719 146.410156 48.761719 146.449219 C 48.757812 146.492188 48.566406 146.738281 48.332031 147.011719 C 47.90625 147.503906 47.617188 148.117188 47.609375 148.582031 C 47.605469 148.675781 47.523438 148.96875 47.429688 149.222656 C 47.203125 149.820312 46.691406 150.445312 46.160156 150.753906 C 45.941406 150.886719 45.757812 150.996094 45.757812 151 C 45.757812 151.007812 46.085938 151.023438 46.488281 151.03125 C 46.964844 151.039062 47.234375 151.070312 47.296875 151.136719 C 47.335938 151.175781 47.503906 151.222656 47.65625 151.226562 C 47.816406 151.234375 48.015625 151.28125 48.113281 151.339844 C 48.207031 151.394531 48.441406 151.441406 48.644531 151.453125 C 48.839844 151.457031 49.019531 151.488281 49.039062 151.523438 C 49.058594 151.558594 49.1875 151.609375 49.320312 151.632812 C 49.519531 151.675781 49.5625 151.710938 49.558594 151.851562 C 49.558594 151.960938 49.515625 152.023438 49.453125 152.023438 C 49.394531 152.023438 49.347656 152.035156 49.347656 152.054688 C 49.347656 152.109375 49.597656 152.359375 49.804688 152.496094 C 50.230469 152.78125 50.371094 152.957031 50.367188 153.199219 C 50.363281 153.367188 50.390625 153.429688 50.472656 153.429688 C 50.578125 153.433594 50.585938 153.300781 50.570312 151.988281 C 50.554688 150.628906 50.582031 150.324219 50.804688 148.71875 C 50.902344 148.011719 50.875 147.539062 50.644531 146.167969 C 50.546875 145.589844 50.527344 145.117188 50.554688 143.703125 C 50.578125 142.160156 50.605469 141.800781 50.777344 140.769531 C 50.996094 139.484375 51.039062 138.921875 51.125 136.785156 C 51.191406 135.082031 51.136719 133.949219 50.949219 133.242188 C 50.863281 132.945312 50.792969 132.359375 50.765625 131.886719 C 50.738281 131.429688 50.710938 130.824219 50.6875 130.539062 C 50.664062 130.238281 50.6875 129.871094 50.730469 129.671875 C 50.777344 129.480469 50.871094 128.972656 50.933594 128.546875 C 51.066406 127.707031 51.386719 126.921875 51.75 126.546875 C 51.847656 126.445312 52.023438 126.261719 52.132812 126.152344 C 52.316406 125.960938 52.914062 125.0625 52.917969 124.980469 C 52.917969 124.960938 53.1875 124.578125 53.523438 124.140625 C 54.261719 123.148438 54.515625 123 54.871094 123.367188 C 54.964844 123.464844 55.046875 123.535156 55.054688 123.523438 C 55.402344 123.058594 55.496094 122.941406 55.585938 122.867188 C 55.75 122.738281 56.128906 122.773438 56.285156 122.933594 Z M 41.1875 155.9375 C 41.054688 156.074219 40.941406 156.207031 40.9375 156.234375 C 40.9375 156.261719 40.851562 156.371094 40.753906 156.480469 C 40.429688 156.839844 39.972656 157.421875 39.566406 158.011719 C 39.34375 158.332031 39.09375 158.667969 39.015625 158.75 C 38.941406 158.824219 38.875 158.921875 38.875 158.957031 C 38.875 159.019531 38.589844 159.316406 37.488281 160.429688 C 37.082031 160.832031 36.75 161.207031 36.75 161.246094 C 36.75 161.296875 36.828125 161.410156 36.925781 161.507812 C 37.128906 161.707031 37.695312 162.578125 37.691406 162.6875 C 37.691406 162.730469 37.71875 162.765625 37.746094 162.765625 C 37.78125 162.765625 37.855469 162.898438 37.921875 163.058594 C 37.988281 163.226562 38.082031 163.453125 38.128906 163.570312 C 38.175781 163.683594 38.253906 163.914062 38.296875 164.082031 C 38.394531 164.441406 38.464844 164.484375 39.074219 164.546875 C 39.328125 164.578125 39.640625 164.640625 39.765625 164.683594 C 39.957031 164.757812 40.027344 164.746094 40.519531 164.492188 C 41.007812 164.234375 41.097656 164.21875 41.578125 164.226562 C 41.863281 164.230469 42.113281 164.207031 42.132812 164.175781 C 42.15625 164.140625 42.296875 164.09375 42.433594 164.070312 C 42.84375 164 42.882812 163.945312 42.765625 163.539062 C 42.707031 163.304688 42.691406 163.074219 42.722656 162.875 C 42.753906 162.695312 42.734375 162.261719 42.671875 161.824219 C 42.558594 160.941406 42.460938 160.566406 42.335938 160.515625 C 42.246094 160.476562 42.09375 160.175781 42.007812 159.863281 C 41.957031 159.652344 41.867188 159.582031 41.644531 159.578125 C 41.429688 159.574219 41.089844 159.207031 41.09375 158.984375 C 41.097656 158.886719 41.0625 158.789062 41.03125 158.769531 C 40.949219 158.710938 40.953125 158.039062 41.035156 158.039062 C 41.070312 158.039062 41.121094 157.964844 41.144531 157.867188 C 41.171875 157.769531 41.265625 157.660156 41.363281 157.628906 C 41.523438 157.570312 41.53125 157.550781 41.578125 156.613281 C 41.601562 156.085938 41.652344 155.558594 41.683594 155.449219 L 41.734375 155.242188 L 41.578125 155.46875 C 41.5 155.597656 41.320312 155.808594 41.1875 155.9375 Z M 41.1875 155.9375 " fill-opacity="1" fill-rule="nonzero"/></g></svg>